<?xml version="1.0" encoding="utf-8" standalone="no"?>
<!DOCTYPE svg PUBLIC "-//W3C//DTD SVG 1.1//EN"
  "http://www.w3.org/Graphics/SVG/1.1/DTD/svg11.dtd">
<svg xmlns:xlink="http://www.w3.org/1999/xlink" width="605.445036pt" height="568.8pt" viewBox="0 0 605.445036 568.8" xmlns="http://www.w3.org/2000/svg" version="1.1">
 <metadata>
  <rdf:RDF xmlns:dc="http://purl.org/dc/elements/1.1/" xmlns:cc="http://creativecommons.org/ns#" xmlns:rdf="http://www.w3.org/1999/02/22-rdf-syntax-ns#">
   <cc:Work>
    <dc:type rdf:resource="http://purl.org/dc/dcmitype/StillImage"/>
    <dc:date>2025-05-19T16:44:41.580648</dc:date>
    <dc:format>image/svg+xml</dc:format>
    <dc:creator>
     <cc:Agent>
      <dc:title>Matplotlib v3.6.1, https://matplotlib.org/</dc:title>
     </cc:Agent>
    </dc:creator>
   </cc:Work>
  </rdf:RDF>
 </metadata>
 <defs>
  <style type="text/css">*{stroke-linejoin: round; stroke-linecap: butt}</style>
 </defs>
 <g id="figure_1">
  <g id="patch_1">
   <path d="M 0 568.8 
L 605.445036 568.8 
L 605.445036 0 
L 0 0 
z
" style="fill: #ffffff"/>
  </g>
  <g id="patch_2">
   <path d="M 29.92 561.6 
L 584.32 561.6 
L 584.32 7.2 
L 29.92 7.2 
z
" style="fill: #ffffff"/>
  </g>
  <g id="pane3d_1">
   <g id="patch_3">
    <path d="M 71.781023 424.902727 
L 254.862009 271.440614 
L 252.317008 50.120814 
L 60.474653 190.118627 
" style="fill: #f7f7f7; opacity: 0.9; stroke: #f7f7f7; stroke-linejoin: miter"/>
   </g>
  </g>
  <g id="pane3d_2">
   <g id="patch_4">
    <path d="M 548.641668 356.830763 
L 254.862009 271.440614 
L 252.317008 50.120814 
L 559.125628 127.887856 
" style="fill: #f7f7f7; opacity: 0.9; stroke: #f7f7f7; stroke-linejoin: miter"/>
   </g>
  </g>
  <g id="pane3d_3">
   <g id="patch_5">
    <path d="M 383.20181 526.612756 
L 71.781023 424.902727 
L 254.862009 271.440614 
L 548.641668 356.830763 
" style="fill: #f7f7f7; opacity: 0.9; stroke: #f7f7f7; stroke-linejoin: miter"/>
   </g>
  </g>
  <g id="axis3d_1">
   <g id="line2d_1">
    <path d="M 71.781023 424.902727 
L 383.20181 526.612756 
" style="fill: none; stroke: #000000; stroke-width: 0.8; stroke-linecap: square"/>
   </g>
   <g id="text_1">
    <!-- WER (Lower is Better) -->
    <g transform="translate(118.738469 510.467471) rotate(-341.912962) scale(0.13 -0.13)">
     <defs>
      <path id="DejaVuSans-Bold-57" d="M 191 4666 
L 1344 4666 
L 2150 1275 
L 2950 4666 
L 4109 4666 
L 4909 1275 
L 5716 4666 
L 6859 4666 
L 5759 0 
L 4372 0 
L 3525 3547 
L 2688 0 
L 1300 0 
L 191 4666 
z
" transform="scale(0.015625)"/>
      <path id="DejaVuSans-Bold-45" d="M 588 4666 
L 3834 4666 
L 3834 3756 
L 1791 3756 
L 1791 2888 
L 3713 2888 
L 3713 1978 
L 1791 1978 
L 1791 909 
L 3903 909 
L 3903 0 
L 588 0 
L 588 4666 
z
" transform="scale(0.015625)"/>
      <path id="DejaVuSans-Bold-52" d="M 2297 2597 
Q 2675 2597 2839 2737 
Q 3003 2878 3003 3200 
Q 3003 3519 2839 3656 
Q 2675 3794 2297 3794 
L 1791 3794 
L 1791 2597 
L 2297 2597 
z
M 1791 1766 
L 1791 0 
L 588 0 
L 588 4666 
L 2425 4666 
Q 3347 4666 3776 4356 
Q 4206 4047 4206 3378 
Q 4206 2916 3982 2619 
Q 3759 2322 3309 2181 
Q 3556 2125 3751 1926 
Q 3947 1728 4147 1325 
L 4800 0 
L 3519 0 
L 2950 1159 
Q 2778 1509 2601 1637 
Q 2425 1766 2131 1766 
L 1791 1766 
z
" transform="scale(0.015625)"/>
      <path id="DejaVuSans-Bold-20" transform="scale(0.015625)"/>
      <path id="DejaVuSans-Bold-28" d="M 2413 -844 
L 1484 -844 
Q 1006 -72 778 623 
Q 550 1319 550 2003 
Q 550 2688 779 3389 
Q 1009 4091 1484 4856 
L 2413 4856 
Q 2013 4116 1813 3408 
Q 1613 2700 1613 2009 
Q 1613 1319 1811 609 
Q 2009 -100 2413 -844 
z
" transform="scale(0.015625)"/>
      <path id="DejaVuSans-Bold-4c" d="M 588 4666 
L 1791 4666 
L 1791 909 
L 3903 909 
L 3903 0 
L 588 0 
L 588 4666 
z
" transform="scale(0.015625)"/>
      <path id="DejaVuSans-Bold-6f" d="M 2203 2784 
Q 1831 2784 1636 2517 
Q 1441 2250 1441 1747 
Q 1441 1244 1636 976 
Q 1831 709 2203 709 
Q 2569 709 2762 976 
Q 2956 1244 2956 1747 
Q 2956 2250 2762 2517 
Q 2569 2784 2203 2784 
z
M 2203 3584 
Q 3106 3584 3614 3096 
Q 4122 2609 4122 1747 
Q 4122 884 3614 396 
Q 3106 -91 2203 -91 
Q 1297 -91 786 396 
Q 275 884 275 1747 
Q 275 2609 786 3096 
Q 1297 3584 2203 3584 
z
" transform="scale(0.015625)"/>
      <path id="DejaVuSans-Bold-77" d="M 225 3500 
L 1313 3500 
L 1900 1088 
L 2491 3500 
L 3425 3500 
L 4013 1113 
L 4603 3500 
L 5691 3500 
L 4769 0 
L 3547 0 
L 2956 2406 
L 2369 0 
L 1147 0 
L 225 3500 
z
" transform="scale(0.015625)"/>
      <path id="DejaVuSans-Bold-65" d="M 4031 1759 
L 4031 1441 
L 1416 1441 
Q 1456 1047 1700 850 
Q 1944 653 2381 653 
Q 2734 653 3104 758 
Q 3475 863 3866 1075 
L 3866 213 
Q 3469 63 3072 -14 
Q 2675 -91 2278 -91 
Q 1328 -91 801 392 
Q 275 875 275 1747 
Q 275 2603 792 3093 
Q 1309 3584 2216 3584 
Q 3041 3584 3536 3087 
Q 4031 2591 4031 1759 
z
M 2881 2131 
Q 2881 2450 2695 2645 
Q 2509 2841 2209 2841 
Q 1884 2841 1681 2658 
Q 1478 2475 1428 2131 
L 2881 2131 
z
" transform="scale(0.015625)"/>
      <path id="DejaVuSans-Bold-72" d="M 3138 2547 
Q 2991 2616 2845 2648 
Q 2700 2681 2553 2681 
Q 2122 2681 1889 2404 
Q 1656 2128 1656 1613 
L 1656 0 
L 538 0 
L 538 3500 
L 1656 3500 
L 1656 2925 
Q 1872 3269 2151 3426 
Q 2431 3584 2822 3584 
Q 2878 3584 2943 3579 
Q 3009 3575 3134 3559 
L 3138 2547 
z
" transform="scale(0.015625)"/>
      <path id="DejaVuSans-Bold-69" d="M 538 3500 
L 1656 3500 
L 1656 0 
L 538 0 
L 538 3500 
z
M 538 4863 
L 1656 4863 
L 1656 3950 
L 538 3950 
L 538 4863 
z
" transform="scale(0.015625)"/>
      <path id="DejaVuSans-Bold-73" d="M 3272 3391 
L 3272 2541 
Q 2913 2691 2578 2766 
Q 2244 2841 1947 2841 
Q 1628 2841 1473 2761 
Q 1319 2681 1319 2516 
Q 1319 2381 1436 2309 
Q 1553 2238 1856 2203 
L 2053 2175 
Q 2913 2066 3209 1816 
Q 3506 1566 3506 1031 
Q 3506 472 3093 190 
Q 2681 -91 1863 -91 
Q 1516 -91 1145 -36 
Q 775 19 384 128 
L 384 978 
Q 719 816 1070 734 
Q 1422 653 1784 653 
Q 2113 653 2278 743 
Q 2444 834 2444 1013 
Q 2444 1163 2330 1236 
Q 2216 1309 1875 1350 
L 1678 1375 
Q 931 1469 631 1722 
Q 331 1975 331 2491 
Q 331 3047 712 3315 
Q 1094 3584 1881 3584 
Q 2191 3584 2531 3537 
Q 2872 3491 3272 3391 
z
" transform="scale(0.015625)"/>
      <path id="DejaVuSans-Bold-42" d="M 2456 2859 
Q 2741 2859 2887 2984 
Q 3034 3109 3034 3353 
Q 3034 3594 2887 3720 
Q 2741 3847 2456 3847 
L 1791 3847 
L 1791 2859 
L 2456 2859 
z
M 2497 819 
Q 2859 819 3042 972 
Q 3225 1125 3225 1434 
Q 3225 1738 3044 1889 
Q 2863 2041 2497 2041 
L 1791 2041 
L 1791 819 
L 2497 819 
z
M 3616 2497 
Q 4003 2384 4215 2081 
Q 4428 1778 4428 1338 
Q 4428 663 3972 331 
Q 3516 0 2584 0 
L 588 0 
L 588 4666 
L 2394 4666 
Q 3366 4666 3802 4372 
Q 4238 4078 4238 3431 
Q 4238 3091 4078 2852 
Q 3919 2613 3616 2497 
z
" transform="scale(0.015625)"/>
      <path id="DejaVuSans-Bold-74" d="M 1759 4494 
L 1759 3500 
L 2913 3500 
L 2913 2700 
L 1759 2700 
L 1759 1216 
Q 1759 972 1856 886 
Q 1953 800 2241 800 
L 2816 800 
L 2816 0 
L 1856 0 
Q 1194 0 917 276 
Q 641 553 641 1216 
L 641 2700 
L 84 2700 
L 84 3500 
L 641 3500 
L 641 4494 
L 1759 4494 
z
" transform="scale(0.015625)"/>
      <path id="DejaVuSans-Bold-29" d="M 513 -844 
Q 913 -100 1113 609 
Q 1313 1319 1313 2009 
Q 1313 2700 1113 3408 
Q 913 4116 513 4856 
L 1441 4856 
Q 1916 4091 2145 3389 
Q 2375 2688 2375 2003 
Q 2375 1319 2147 623 
Q 1919 -72 1441 -844 
L 513 -844 
z
" transform="scale(0.015625)"/>
     </defs>
     <use xlink:href="#DejaVuSans-Bold-57"/>
     <use xlink:href="#DejaVuSans-Bold-45" x="110.302734"/>
     <use xlink:href="#DejaVuSans-Bold-52" x="178.613281"/>
     <use xlink:href="#DejaVuSans-Bold-20" x="255.615234"/>
     <use xlink:href="#DejaVuSans-Bold-28" x="290.429688"/>
     <use xlink:href="#DejaVuSans-Bold-4c" x="336.132812"/>
     <use xlink:href="#DejaVuSans-Bold-6f" x="399.853516"/>
     <use xlink:href="#DejaVuSans-Bold-77" x="468.554688"/>
     <use xlink:href="#DejaVuSans-Bold-65" x="560.9375"/>
     <use xlink:href="#DejaVuSans-Bold-72" x="628.759766"/>
     <use xlink:href="#DejaVuSans-Bold-20" x="678.076172"/>
     <use xlink:href="#DejaVuSans-Bold-69" x="712.890625"/>
     <use xlink:href="#DejaVuSans-Bold-73" x="747.167969"/>
     <use xlink:href="#DejaVuSans-Bold-20" x="806.689453"/>
     <use xlink:href="#DejaVuSans-Bold-42" x="841.503906"/>
     <use xlink:href="#DejaVuSans-Bold-65" x="917.724609"/>
     <use xlink:href="#DejaVuSans-Bold-74" x="985.546875"/>
     <use xlink:href="#DejaVuSans-Bold-74" x="1033.349609"/>
     <use xlink:href="#DejaVuSans-Bold-65" x="1081.152344"/>
     <use xlink:href="#DejaVuSans-Bold-72" x="1148.974609"/>
     <use xlink:href="#DejaVuSans-Bold-29" x="1198.291016"/>
    </g>
   </g>
   <g id="Line3DCollection_1">
    <path d="M 334.685409 510.767299 
L 503.043916 343.577297 
L 511.420654 115.796036 
" style="fill: none; stroke: #b0b0b0; stroke-width: 0.8"/>
    <path d="M 276.647513 491.812122 
L 448.41512 327.698862 
L 454.308459 101.319759 
" style="fill: none; stroke: #b0b0b0; stroke-width: 0.8"/>
    <path d="M 219.71917 473.219325 
L 394.743358 312.0986 
L 398.240469 87.108158 
" style="fill: none; stroke: #b0b0b0; stroke-width: 0.8"/>
    <path d="M 163.868864 454.978616 
L 342.003698 296.769263 
L 343.188307 73.15404 
" style="fill: none; stroke: #b0b0b0; stroke-width: 0.8"/>
    <path d="M 109.06626 437.080086 
L 290.172069 281.703855 
L 289.124613 59.450469 
" style="fill: none; stroke: #b0b0b0; stroke-width: 0.8"/>
   </g>
   <g id="xtick_1">
    <g id="line2d_2">
     <path d="M 336.156503 509.306415 
L 331.736641 513.695601 
" style="fill: none; stroke: #000000; stroke-width: 0.8; stroke-linecap: square"/>
    </g>
    <g id="text_2">
     <!-- 3 -->
     <g transform="translate(320.592692 542.848673) scale(0.12 -0.12)">
      <defs>
       <path id="DejaVuSans-33" d="M 2597 2516 
Q 3050 2419 3304 2112 
Q 3559 1806 3559 1356 
Q 3559 666 3084 287 
Q 2609 -91 1734 -91 
Q 1441 -91 1130 -33 
Q 819 25 488 141 
L 488 750 
Q 750 597 1062 519 
Q 1375 441 1716 441 
Q 2309 441 2620 675 
Q 2931 909 2931 1356 
Q 2931 1769 2642 2001 
Q 2353 2234 1838 2234 
L 1294 2234 
L 1294 2753 
L 1863 2753 
Q 2328 2753 2575 2939 
Q 2822 3125 2822 3475 
Q 2822 3834 2567 4026 
Q 2313 4219 1838 4219 
Q 1578 4219 1281 4162 
Q 984 4106 628 3988 
L 628 4550 
Q 988 4650 1302 4700 
Q 1616 4750 1894 4750 
Q 2613 4750 3031 4423 
Q 3450 4097 3450 3541 
Q 3450 3153 3228 2886 
Q 3006 2619 2597 2516 
z
" transform="scale(0.015625)"/>
      </defs>
      <use xlink:href="#DejaVuSans-33"/>
     </g>
    </g>
   </g>
   <g id="xtick_2">
    <g id="line2d_3">
     <path d="M 278.147173 490.37929 
L 273.64155 494.684133 
" style="fill: none; stroke: #000000; stroke-width: 0.8; stroke-linecap: square"/>
    </g>
    <g id="text_3">
     <!-- 4 -->
     <g transform="translate(262.505665 523.622791) scale(0.12 -0.12)">
      <defs>
       <path id="DejaVuSans-34" d="M 2419 4116 
L 825 1625 
L 2419 1625 
L 2419 4116 
z
M 2253 4666 
L 3047 4666 
L 3047 1625 
L 3713 1625 
L 3713 1100 
L 3047 1100 
L 3047 0 
L 2419 0 
L 2419 1100 
L 313 1100 
L 313 1709 
L 2253 4666 
z
" transform="scale(0.015625)"/>
      </defs>
      <use xlink:href="#DejaVuSans-34"/>
     </g>
    </g>
   </g>
   <g id="xtick_3">
    <g id="line2d_4">
     <path d="M 221.246041 471.813745 
L 216.65873 476.036652 
" style="fill: none; stroke: #000000; stroke-width: 0.8; stroke-linecap: square"/>
    </g>
    <g id="text_4">
     <!-- 5 -->
     <g transform="translate(205.531947 504.765396) scale(0.12 -0.12)">
      <defs>
       <path id="DejaVuSans-35" d="M 691 4666 
L 3169 4666 
L 3169 4134 
L 1269 4134 
L 1269 2991 
Q 1406 3038 1543 3061 
Q 1681 3084 1819 3084 
Q 2600 3084 3056 2656 
Q 3513 2228 3513 1497 
Q 3513 744 3044 326 
Q 2575 -91 1722 -91 
Q 1428 -91 1123 -41 
Q 819 9 494 109 
L 494 744 
Q 775 591 1075 516 
Q 1375 441 1709 441 
Q 2250 441 2565 725 
Q 2881 1009 2881 1497 
Q 2881 1984 2565 2268 
Q 2250 2553 1709 2553 
Q 1456 2553 1204 2497 
Q 953 2441 691 2322 
L 691 4666 
z
" transform="scale(0.015625)"/>
      </defs>
      <use xlink:href="#DejaVuSans-35"/>
     </g>
    </g>
   </g>
   <g id="xtick_4">
    <g id="line2d_5">
     <path d="M 165.421651 453.599517 
L 160.756541 457.742806 
" style="fill: none; stroke: #000000; stroke-width: 0.8; stroke-linecap: square"/>
    </g>
    <g id="text_5">
     <!-- 6 -->
     <g transform="translate(149.639833 486.265995) scale(0.12 -0.12)">
      <defs>
       <path id="DejaVuSans-36" d="M 2113 2584 
Q 1688 2584 1439 2293 
Q 1191 2003 1191 1497 
Q 1191 994 1439 701 
Q 1688 409 2113 409 
Q 2538 409 2786 701 
Q 3034 994 3034 1497 
Q 3034 2003 2786 2293 
Q 2538 2584 2113 2584 
z
M 3366 4563 
L 3366 3988 
Q 3128 4100 2886 4159 
Q 2644 4219 2406 4219 
Q 1781 4219 1451 3797 
Q 1122 3375 1075 2522 
Q 1259 2794 1537 2939 
Q 1816 3084 2150 3084 
Q 2853 3084 3261 2657 
Q 3669 2231 3669 1497 
Q 3669 778 3244 343 
Q 2819 -91 2113 -91 
Q 1303 -91 875 529 
Q 447 1150 447 2328 
Q 447 3434 972 4092 
Q 1497 4750 2381 4750 
Q 2619 4750 2861 4703 
Q 3103 4656 3366 4563 
z
" transform="scale(0.015625)"/>
      </defs>
      <use xlink:href="#DejaVuSans-36"/>
     </g>
    </g>
   </g>
   <g id="xtick_5">
    <g id="line2d_6">
     <path d="M 110.643729 435.726727 
L 105.904533 439.792628 
" style="fill: none; stroke: #000000; stroke-width: 0.8; stroke-linecap: square"/>
    </g>
    <g id="text_6">
     <!-- 7 -->
     <g transform="translate(94.798814 468.11449) scale(0.12 -0.12)">
      <defs>
       <path id="DejaVuSans-37" d="M 525 4666 
L 3525 4666 
L 3525 4397 
L 1831 0 
L 1172 0 
L 2766 4134 
L 525 4134 
L 525 4666 
z
" transform="scale(0.015625)"/>
      </defs>
      <use xlink:href="#DejaVuSans-37"/>
     </g>
    </g>
   </g>
  </g>
  <g id="axis3d_2">
   <g id="line2d_7">
    <path d="M 548.641668 356.830763 
L 383.20181 526.612756 
" style="fill: none; stroke: #000000; stroke-width: 0.8; stroke-linecap: square"/>
   </g>
   <g id="text_7">
    <!-- UTMOS (Higher is Better) -->
    <g transform="translate(451.497114 552.898468) rotate(-45.742112) scale(0.13 -0.13)">
     <defs>
      <path id="DejaVuSans-Bold-55" d="M 588 4666 
L 1791 4666 
L 1791 1869 
Q 1791 1291 1980 1042 
Q 2169 794 2597 794 
Q 3028 794 3217 1042 
Q 3406 1291 3406 1869 
L 3406 4666 
L 4609 4666 
L 4609 1869 
Q 4609 878 4112 393 
Q 3616 -91 2597 -91 
Q 1581 -91 1084 393 
Q 588 878 588 1869 
L 588 4666 
z
" transform="scale(0.015625)"/>
      <path id="DejaVuSans-Bold-54" d="M 31 4666 
L 4331 4666 
L 4331 3756 
L 2784 3756 
L 2784 0 
L 1581 0 
L 1581 3756 
L 31 3756 
L 31 4666 
z
" transform="scale(0.015625)"/>
      <path id="DejaVuSans-Bold-4d" d="M 588 4666 
L 2119 4666 
L 3181 2169 
L 4250 4666 
L 5778 4666 
L 5778 0 
L 4641 0 
L 4641 3413 
L 3566 897 
L 2803 897 
L 1728 3413 
L 1728 0 
L 588 0 
L 588 4666 
z
" transform="scale(0.015625)"/>
      <path id="DejaVuSans-Bold-4f" d="M 2719 3878 
Q 2169 3878 1866 3472 
Q 1563 3066 1563 2328 
Q 1563 1594 1866 1187 
Q 2169 781 2719 781 
Q 3272 781 3575 1187 
Q 3878 1594 3878 2328 
Q 3878 3066 3575 3472 
Q 3272 3878 2719 3878 
z
M 2719 4750 
Q 3844 4750 4481 4106 
Q 5119 3463 5119 2328 
Q 5119 1197 4481 553 
Q 3844 -91 2719 -91 
Q 1597 -91 958 553 
Q 319 1197 319 2328 
Q 319 3463 958 4106 
Q 1597 4750 2719 4750 
z
" transform="scale(0.015625)"/>
      <path id="DejaVuSans-Bold-53" d="M 3834 4519 
L 3834 3531 
Q 3450 3703 3084 3790 
Q 2719 3878 2394 3878 
Q 1963 3878 1756 3759 
Q 1550 3641 1550 3391 
Q 1550 3203 1689 3098 
Q 1828 2994 2194 2919 
L 2706 2816 
Q 3484 2659 3812 2340 
Q 4141 2022 4141 1434 
Q 4141 663 3683 286 
Q 3225 -91 2284 -91 
Q 1841 -91 1394 -6 
Q 947 78 500 244 
L 500 1259 
Q 947 1022 1364 901 
Q 1781 781 2169 781 
Q 2563 781 2772 912 
Q 2981 1044 2981 1288 
Q 2981 1506 2839 1625 
Q 2697 1744 2272 1838 
L 1806 1941 
Q 1106 2091 782 2419 
Q 459 2747 459 3303 
Q 459 4000 909 4375 
Q 1359 4750 2203 4750 
Q 2588 4750 2994 4692 
Q 3400 4634 3834 4519 
z
" transform="scale(0.015625)"/>
      <path id="DejaVuSans-Bold-48" d="M 588 4666 
L 1791 4666 
L 1791 2888 
L 3566 2888 
L 3566 4666 
L 4769 4666 
L 4769 0 
L 3566 0 
L 3566 1978 
L 1791 1978 
L 1791 0 
L 588 0 
L 588 4666 
z
" transform="scale(0.015625)"/>
      <path id="DejaVuSans-Bold-67" d="M 2919 594 
Q 2688 288 2409 144 
Q 2131 0 1766 0 
Q 1125 0 706 504 
Q 288 1009 288 1791 
Q 288 2575 706 3076 
Q 1125 3578 1766 3578 
Q 2131 3578 2409 3434 
Q 2688 3291 2919 2981 
L 2919 3500 
L 4044 3500 
L 4044 353 
Q 4044 -491 3511 -936 
Q 2978 -1381 1966 -1381 
Q 1638 -1381 1331 -1331 
Q 1025 -1281 716 -1178 
L 716 -306 
Q 1009 -475 1290 -558 
Q 1572 -641 1856 -641 
Q 2406 -641 2662 -400 
Q 2919 -159 2919 353 
L 2919 594 
z
M 2181 2772 
Q 1834 2772 1640 2515 
Q 1447 2259 1447 1791 
Q 1447 1309 1634 1061 
Q 1822 813 2181 813 
Q 2531 813 2725 1069 
Q 2919 1325 2919 1791 
Q 2919 2259 2725 2515 
Q 2531 2772 2181 2772 
z
" transform="scale(0.015625)"/>
      <path id="DejaVuSans-Bold-68" d="M 4056 2131 
L 4056 0 
L 2931 0 
L 2931 347 
L 2931 1625 
Q 2931 2084 2911 2256 
Q 2891 2428 2841 2509 
Q 2775 2619 2662 2680 
Q 2550 2741 2406 2741 
Q 2056 2741 1856 2470 
Q 1656 2200 1656 1722 
L 1656 0 
L 538 0 
L 538 4863 
L 1656 4863 
L 1656 2988 
Q 1909 3294 2193 3439 
Q 2478 3584 2822 3584 
Q 3428 3584 3742 3212 
Q 4056 2841 4056 2131 
z
" transform="scale(0.015625)"/>
     </defs>
     <use xlink:href="#DejaVuSans-Bold-55"/>
     <use xlink:href="#DejaVuSans-Bold-54" x="81.201172"/>
     <use xlink:href="#DejaVuSans-Bold-4d" x="149.414062"/>
     <use xlink:href="#DejaVuSans-Bold-4f" x="248.925781"/>
     <use xlink:href="#DejaVuSans-Bold-53" x="333.935547"/>
     <use xlink:href="#DejaVuSans-Bold-20" x="405.957031"/>
     <use xlink:href="#DejaVuSans-Bold-28" x="440.771484"/>
     <use xlink:href="#DejaVuSans-Bold-48" x="486.474609"/>
     <use xlink:href="#DejaVuSans-Bold-69" x="570.166016"/>
     <use xlink:href="#DejaVuSans-Bold-67" x="604.443359"/>
     <use xlink:href="#DejaVuSans-Bold-68" x="676.025391"/>
     <use xlink:href="#DejaVuSans-Bold-65" x="747.216797"/>
     <use xlink:href="#DejaVuSans-Bold-72" x="815.039062"/>
     <use xlink:href="#DejaVuSans-Bold-20" x="864.355469"/>
     <use xlink:href="#DejaVuSans-Bold-69" x="899.169922"/>
     <use xlink:href="#DejaVuSans-Bold-73" x="933.447266"/>
     <use xlink:href="#DejaVuSans-Bold-20" x="992.96875"/>
     <use xlink:href="#DejaVuSans-Bold-42" x="1027.783203"/>
     <use xlink:href="#DejaVuSans-Bold-65" x="1104.003906"/>
     <use xlink:href="#DejaVuSans-Bold-74" x="1171.826172"/>
     <use xlink:href="#DejaVuSans-Bold-74" x="1219.628906"/>
     <use xlink:href="#DejaVuSans-Bold-65" x="1267.431641"/>
     <use xlink:href="#DejaVuSans-Bold-72" x="1335.253906"/>
     <use xlink:href="#DejaVuSans-Bold-29" x="1384.570312"/>
    </g>
   </g>
   <g id="Line3DCollection_2">
    <path d="M 75.748859 178.972208 
L 86.3068 412.726933 
L 396.381381 513.087274 
" style="fill: none; stroke: #b0b0b0; stroke-width: 0.8"/>
    <path d="M 111.931156 152.568015 
L 120.751195 383.854958 
L 427.596627 481.052753 
" style="fill: none; stroke: #b0b0b0; stroke-width: 0.8"/>
    <path d="M 146.961472 127.004486 
L 154.145938 355.862823 
L 457.811103 450.045268 
" style="fill: none; stroke: #b0b0b0; stroke-width: 0.8"/>
    <path d="M 180.893962 102.2421 
L 186.538287 328.710913 
L 487.072177 420.016207 
" style="fill: none; stroke: #b0b0b0; stroke-width: 0.8"/>
    <path d="M 213.779436 78.243779 
L 217.972709 302.361957 
L 515.424274 390.919981 
" style="fill: none; stroke: #b0b0b0; stroke-width: 0.8"/>
    <path d="M 245.665618 54.974696 
L 248.491077 276.780856 
L 542.909102 362.713786 
" style="fill: none; stroke: #b0b0b0; stroke-width: 0.8"/>
   </g>
   <g id="xtick_6">
    <g id="line2d_8">
     <path d="M 393.768492 512.241573 
L 401.613908 514.780861 
" style="fill: none; stroke: #000000; stroke-width: 0.8; stroke-linecap: square"/>
    </g>
    <g id="text_8">
     <!-- 2.8 -->
     <g transform="translate(404.741324 540.859987) scale(0.12 -0.12)">
      <defs>
       <path id="DejaVuSans-32" d="M 1228 531 
L 3431 531 
L 3431 0 
L 469 0 
L 469 531 
Q 828 903 1448 1529 
Q 2069 2156 2228 2338 
Q 2531 2678 2651 2914 
Q 2772 3150 2772 3378 
Q 2772 3750 2511 3984 
Q 2250 4219 1831 4219 
Q 1534 4219 1204 4116 
Q 875 4013 500 3803 
L 500 4441 
Q 881 4594 1212 4672 
Q 1544 4750 1819 4750 
Q 2544 4750 2975 4387 
Q 3406 4025 3406 3419 
Q 3406 3131 3298 2873 
Q 3191 2616 2906 2266 
Q 2828 2175 2409 1742 
Q 1991 1309 1228 531 
z
" transform="scale(0.015625)"/>
       <path id="DejaVuSans-2e" d="M 684 794 
L 1344 794 
L 1344 0 
L 684 0 
L 684 794 
z
" transform="scale(0.015625)"/>
       <path id="DejaVuSans-38" d="M 2034 2216 
Q 1584 2216 1326 1975 
Q 1069 1734 1069 1313 
Q 1069 891 1326 650 
Q 1584 409 2034 409 
Q 2484 409 2743 651 
Q 3003 894 3003 1313 
Q 3003 1734 2745 1975 
Q 2488 2216 2034 2216 
z
M 1403 2484 
Q 997 2584 770 2862 
Q 544 3141 544 3541 
Q 544 4100 942 4425 
Q 1341 4750 2034 4750 
Q 2731 4750 3128 4425 
Q 3525 4100 3525 3541 
Q 3525 3141 3298 2862 
Q 3072 2584 2669 2484 
Q 3125 2378 3379 2068 
Q 3634 1759 3634 1313 
Q 3634 634 3220 271 
Q 2806 -91 2034 -91 
Q 1263 -91 848 271 
Q 434 634 434 1313 
Q 434 1759 690 2068 
Q 947 2378 1403 2484 
z
M 1172 3481 
Q 1172 3119 1398 2916 
Q 1625 2713 2034 2713 
Q 2441 2713 2670 2916 
Q 2900 3119 2900 3481 
Q 2900 3844 2670 4047 
Q 2441 4250 2034 4250 
Q 1625 4250 1398 4047 
Q 1172 3844 1172 3481 
z
" transform="scale(0.015625)"/>
      </defs>
      <use xlink:href="#DejaVuSans-32"/>
      <use xlink:href="#DejaVuSans-2e" x="63.623047"/>
      <use xlink:href="#DejaVuSans-38" x="95.410156"/>
     </g>
    </g>
   </g>
   <g id="xtick_7">
    <g id="line2d_9">
     <path d="M 425.013081 480.234377 
L 432.770284 482.691585 
" style="fill: none; stroke: #000000; stroke-width: 0.8; stroke-linecap: square"/>
    </g>
    <g id="text_9">
     <!-- 3.0 -->
     <g transform="translate(435.677077 508.508851) scale(0.12 -0.12)">
      <defs>
       <path id="DejaVuSans-30" d="M 2034 4250 
Q 1547 4250 1301 3770 
Q 1056 3291 1056 2328 
Q 1056 1369 1301 889 
Q 1547 409 2034 409 
Q 2525 409 2770 889 
Q 3016 1369 3016 2328 
Q 3016 3291 2770 3770 
Q 2525 4250 2034 4250 
z
M 2034 4750 
Q 2819 4750 3233 4129 
Q 3647 3509 3647 2328 
Q 3647 1150 3233 529 
Q 2819 -91 2034 -91 
Q 1250 -91 836 529 
Q 422 1150 422 2328 
Q 422 3509 836 4129 
Q 1250 4750 2034 4750 
z
" transform="scale(0.015625)"/>
      </defs>
      <use xlink:href="#DejaVuSans-33"/>
      <use xlink:href="#DejaVuSans-2e" x="63.623047"/>
      <use xlink:href="#DejaVuSans-30" x="95.410156"/>
     </g>
    </g>
   </g>
   <g id="xtick_8">
    <g id="line2d_10">
     <path d="M 455.256376 449.252913 
L 462.926945 451.631958 
" style="fill: none; stroke: #000000; stroke-width: 0.8; stroke-linecap: square"/>
    </g>
    <g id="text_10">
     <!-- 3.2 -->
     <g transform="translate(465.620637 477.195303) scale(0.12 -0.12)">
      <use xlink:href="#DejaVuSans-33"/>
      <use xlink:href="#DejaVuSans-2e" x="63.623047"/>
      <use xlink:href="#DejaVuSans-32" x="95.410156"/>
     </g>
    </g>
   </g>
   <g id="xtick_9">
    <g id="line2d_11">
     <path d="M 484.545751 419.248653 
L 492.131247 421.553205 
" style="fill: none; stroke: #000000; stroke-width: 0.8; stroke-linecap: square"/>
    </g>
    <g id="text_11">
     <!-- 3.4 -->
     <g transform="translate(494.618984 446.870214) scale(0.12 -0.12)">
      <use xlink:href="#DejaVuSans-33"/>
      <use xlink:href="#DejaVuSans-2e" x="63.623047"/>
      <use xlink:href="#DejaVuSans-34" x="95.410156"/>
     </g>
    </g>
   </g>
   <g id="xtick_10">
    <g id="line2d_12">
     <path d="M 512.925637 390.17608 
L 520.427603 392.409584 
" style="fill: none; stroke: #000000; stroke-width: 0.8; stroke-linecap: square"/>
    </g>
    <g id="text_12">
     <!-- 3.6 -->
     <g transform="translate(522.716178 417.487508) scale(0.12 -0.12)">
      <use xlink:href="#DejaVuSans-33"/>
      <use xlink:href="#DejaVuSans-2e" x="63.623047"/>
      <use xlink:href="#DejaVuSans-36" x="95.410156"/>
     </g>
    </g>
   </g>
   <g id="xtick_11">
    <g id="line2d_13">
     <path d="M 540.437748 361.992462 
L 547.857707 364.158154 
" style="fill: none; stroke: #000000; stroke-width: 0.8; stroke-linecap: square"/>
    </g>
    <g id="text_13">
     <!-- 3.8 -->
     <g transform="translate(549.953583 389.003928) scale(0.12 -0.12)">
      <use xlink:href="#DejaVuSans-33"/>
      <use xlink:href="#DejaVuSans-2e" x="63.623047"/>
      <use xlink:href="#DejaVuSans-38" x="95.410156"/>
     </g>
    </g>
   </g>
  </g>
  <g id="axis3d_3">
   <g id="line2d_14">
    <path d="M 548.641668 356.830763 
L 559.125628 127.887856 
" style="fill: none; stroke: #000000; stroke-width: 0.8; stroke-linecap: square"/>
   </g>
   <g id="text_14">
    <!-- SIM (Higher is Better) -->
    <g transform="translate(619.945148 316.208209) rotate(-87.378092) scale(0.13 -0.13)">
     <defs>
      <path id="DejaVuSans-Bold-49" d="M 588 4666 
L 1791 4666 
L 1791 0 
L 588 0 
L 588 4666 
z
" transform="scale(0.015625)"/>
     </defs>
     <use xlink:href="#DejaVuSans-Bold-53"/>
     <use xlink:href="#DejaVuSans-Bold-49" x="72.021484"/>
     <use xlink:href="#DejaVuSans-Bold-4d" x="109.228516"/>
     <use xlink:href="#DejaVuSans-Bold-20" x="208.740234"/>
     <use xlink:href="#DejaVuSans-Bold-28" x="243.554688"/>
     <use xlink:href="#DejaVuSans-Bold-48" x="289.257812"/>
     <use xlink:href="#DejaVuSans-Bold-69" x="372.949219"/>
     <use xlink:href="#DejaVuSans-Bold-67" x="407.226562"/>
     <use xlink:href="#DejaVuSans-Bold-68" x="478.808594"/>
     <use xlink:href="#DejaVuSans-Bold-65" x="550"/>
     <use xlink:href="#DejaVuSans-Bold-72" x="617.822266"/>
     <use xlink:href="#DejaVuSans-Bold-20" x="667.138672"/>
     <use xlink:href="#DejaVuSans-Bold-69" x="701.953125"/>
     <use xlink:href="#DejaVuSans-Bold-73" x="736.230469"/>
     <use xlink:href="#DejaVuSans-Bold-20" x="795.751953"/>
     <use xlink:href="#DejaVuSans-Bold-42" x="830.566406"/>
     <use xlink:href="#DejaVuSans-Bold-65" x="906.787109"/>
     <use xlink:href="#DejaVuSans-Bold-74" x="974.609375"/>
     <use xlink:href="#DejaVuSans-Bold-74" x="1022.412109"/>
     <use xlink:href="#DejaVuSans-Bold-65" x="1070.214844"/>
     <use xlink:href="#DejaVuSans-Bold-72" x="1138.037109"/>
     <use xlink:href="#DejaVuSans-Bold-29" x="1187.353516"/>
    </g>
   </g>
   <g id="Line3DCollection_3">
    <path d="M 548.915655 350.847587 
L 254.795362 265.644757 
L 71.486028 418.776965 
" style="fill: none; stroke: #b0b0b0; stroke-width: 0.8"/>
    <path d="M 550.758758 310.598913 
L 254.347215 226.672802 
L 69.500929 377.555095 
" style="fill: none; stroke: #b0b0b0; stroke-width: 0.8"/>
    <path d="M 552.631089 269.712003 
L 253.892303 187.112482 
L 67.483147 335.654539 
" style="fill: none; stroke: #b0b0b0; stroke-width: 0.8"/>
    <path d="M 554.533347 228.171553 
L 253.430471 146.950372 
L 65.431868 293.058395 
" style="fill: none; stroke: #b0b0b0; stroke-width: 0.8"/>
    <path d="M 556.466255 185.961768 
L 252.961559 106.172634 
L 63.34625 249.749199 
" style="fill: none; stroke: #b0b0b0; stroke-width: 0.8"/>
    <path d="M 558.430561 143.06634 
L 252.485405 64.765005 
L 61.225425 205.708894 
" style="fill: none; stroke: #b0b0b0; stroke-width: 0.8"/>
   </g>
   <g id="xtick_12">
    <g id="line2d_15">
     <path d="M 546.44704 350.132462 
L 553.858762 352.279541 
" style="fill: none; stroke: #000000; stroke-width: 0.8; stroke-linecap: square"/>
    </g>
    <g id="text_15">
     <!-- 0.45 -->
     <g transform="translate(561.000147 356.345522) scale(0.12 -0.12)">
      <use xlink:href="#DejaVuSans-30"/>
      <use xlink:href="#DejaVuSans-2e" x="63.623047"/>
      <use xlink:href="#DejaVuSans-34" x="95.410156"/>
      <use xlink:href="#DejaVuSans-35" x="159.033203"/>
     </g>
    </g>
   </g>
   <g id="xtick_13">
    <g id="line2d_16">
     <path d="M 548.269996 309.894244 
L 555.742255 312.009943 
" style="fill: none; stroke: #000000; stroke-width: 0.8; stroke-linecap: square"/>
    </g>
    <g id="text_16">
     <!-- 0.50 -->
     <g transform="translate(563.039267 316.149826) scale(0.12 -0.12)">
      <use xlink:href="#DejaVuSans-30"/>
      <use xlink:href="#DejaVuSans-2e" x="63.623047"/>
      <use xlink:href="#DejaVuSans-35" x="95.410156"/>
      <use xlink:href="#DejaVuSans-30" x="159.033203"/>
     </g>
    </g>
   </g>
   <g id="xtick_14">
    <g id="line2d_17">
     <path d="M 550.121848 269.018212 
L 557.65564 271.101261 
" style="fill: none; stroke: #000000; stroke-width: 0.8; stroke-linecap: square"/>
    </g>
    <g id="text_17">
     <!-- 0.55 -->
     <g transform="translate(565.110657 275.318033) scale(0.12 -0.12)">
      <use xlink:href="#DejaVuSans-30"/>
      <use xlink:href="#DejaVuSans-2e" x="63.623047"/>
      <use xlink:href="#DejaVuSans-35" x="95.410156"/>
      <use xlink:href="#DejaVuSans-35" x="159.033203"/>
     </g>
    </g>
   </g>
   <g id="xtick_15">
    <g id="line2d_18">
     <path d="M 552.003288 227.489081 
L 559.599633 229.538161 
" style="fill: none; stroke: #000000; stroke-width: 0.8; stroke-linecap: square"/>
    </g>
    <g id="text_18">
     <!-- 0.60 -->
     <g transform="translate(567.215088 233.834923) scale(0.12 -0.12)">
      <use xlink:href="#DejaVuSans-30"/>
      <use xlink:href="#DejaVuSans-2e" x="63.623047"/>
      <use xlink:href="#DejaVuSans-36" x="95.410156"/>
      <use xlink:href="#DejaVuSans-30" x="159.033203"/>
     </g>
    </g>
   </g>
   <g id="xtick_16">
    <g id="line2d_19">
     <path d="M 553.915031 185.29107 
L 561.574974 187.304812 
" style="fill: none; stroke: #000000; stroke-width: 0.8; stroke-linecap: square"/>
    </g>
    <g id="text_19">
     <!-- 0.65 -->
     <g transform="translate(569.353357 191.684786) scale(0.12 -0.12)">
      <use xlink:href="#DejaVuSans-30"/>
      <use xlink:href="#DejaVuSans-2e" x="63.623047"/>
      <use xlink:href="#DejaVuSans-36" x="95.410156"/>
      <use xlink:href="#DejaVuSans-35" x="159.033203"/>
     </g>
    </g>
   </g>
   <g id="xtick_17">
    <g id="line2d_20">
     <path d="M 555.857815 142.40789 
L 563.58243 144.384871 
" style="fill: none; stroke: #000000; stroke-width: 0.8; stroke-linecap: square"/>
    </g>
    <g id="text_20">
     <!-- 0.70 -->
     <g transform="translate(571.526286 148.851404) scale(0.12 -0.12)">
      <use xlink:href="#DejaVuSans-30"/>
      <use xlink:href="#DejaVuSans-2e" x="63.623047"/>
      <use xlink:href="#DejaVuSans-37" x="95.410156"/>
      <use xlink:href="#DejaVuSans-30" x="159.033203"/>
     </g>
    </g>
   </g>
  </g>
  <g id="axes_1">
   <g id="line2d_21">
    <path d="M 510.087412 157.774469 
L 502.67861 359.018515 
" clip-path="url(#p1592921c40)" style="fill: none; stroke-dasharray: 0.8,1.32; stroke-dashoffset: 0; stroke: #808080; stroke-opacity: 0.6; stroke-width: 0.8"/>
   </g>
   <g id="line2d_22">
    <path d="M 510.087412 157.774469 
L 522.905282 146.317193 
" clip-path="url(#p1592921c40)" style="fill: none; stroke-dasharray: 0.8,1.32; stroke-dashoffset: 0; stroke: #808080; stroke-opacity: 0.6; stroke-width: 0.8"/>
   </g>
   <g id="line2d_23">
    <path d="M 419.519585 155.992817 
L 415.731354 347.789991 
" clip-path="url(#p1592921c40)" style="fill: none; stroke-dasharray: 0.8,1.32; stroke-dashoffset: 0; stroke: #808080; stroke-opacity: 0.6; stroke-width: 0.8"/>
   </g>
   <g id="line2d_24">
    <path d="M 419.519585 155.992817 
L 444.587466 134.681511 
" clip-path="url(#p1592921c40)" style="fill: none; stroke-dasharray: 0.8,1.32; stroke-dashoffset: 0; stroke: #808080; stroke-opacity: 0.6; stroke-width: 0.8"/>
   </g>
   <g id="line2d_25">
    <path d="M 231.840937 414.380764 
L 232.412514 449.274845 
" clip-path="url(#p1592921c40)" style="fill: none; stroke-dasharray: 0.8,1.32; stroke-dashoffset: 0; stroke: #808080; stroke-opacity: 0.6; stroke-width: 0.8"/>
   </g>
   <g id="line2d_26">
    <path d="M 231.840937 414.380764 
L 386.194431 275.825906 
" clip-path="url(#p1592921c40)" style="fill: none; stroke-dasharray: 0.8,1.32; stroke-dashoffset: 0; stroke: #808080; stroke-opacity: 0.6; stroke-width: 0.8"/>
   </g>
   <g id="line2d_27">
    <path d="M 457.635971 236.48474 
L 453.985151 370.009712 
" clip-path="url(#p1592921c40)" style="fill: none; stroke-dasharray: 0.8,1.32; stroke-dashoffset: 0; stroke: #808080; stroke-opacity: 0.6; stroke-width: 0.8"/>
   </g>
   <g id="line2d_28">
    <path d="M 457.635971 236.48474 
L 490.757392 206.310775 
" clip-path="url(#p1592921c40)" style="fill: none; stroke-dasharray: 0.8,1.32; stroke-dashoffset: 0; stroke: #808080; stroke-opacity: 0.6; stroke-width: 0.8"/>
   </g>
   <g id="line2d_29">
    <path d="M 234.278089 320.744067 
L 234.67789 346.357889 
" clip-path="url(#p1592921c40)" style="fill: none; stroke-dasharray: 0.8,1.32; stroke-dashoffset: 0; stroke: #808080; stroke-opacity: 0.6; stroke-width: 0.8"/>
   </g>
   <g id="line2d_30">
    <path d="M 234.278089 320.744067 
L 304.846178 260.504192 
" clip-path="url(#p1592921c40)" style="fill: none; stroke-dasharray: 0.8,1.32; stroke-dashoffset: 0; stroke: #808080; stroke-opacity: 0.6; stroke-width: 0.8"/>
   </g>
   <g id="line2d_31">
    <path d="M 308.24656 361.216723 
L 308.320784 420.758482 
" clip-path="url(#p1592921c40)" style="fill: none; stroke-dasharray: 0.8,1.32; stroke-dashoffset: 0; stroke: #808080; stroke-opacity: 0.6; stroke-width: 0.8"/>
   </g>
   <g id="line2d_32">
    <path d="M 308.24656 361.216723 
L 418.978942 260.966177 
" clip-path="url(#p1592921c40)" style="fill: none; stroke-dasharray: 0.8,1.32; stroke-dashoffset: 0; stroke: #808080; stroke-opacity: 0.6; stroke-width: 0.8"/>
   </g>
   <g id="line2d_33">
    <path d="M 482.134998 227.656993 
L 477.880591 360.726299 
" clip-path="url(#p1592921c40)" style="fill: none; stroke-dasharray: 0.8,1.32; stroke-dashoffset: 0; stroke: #808080; stroke-opacity: 0.6; stroke-width: 0.8"/>
   </g>
   <g id="line2d_34">
    <path d="M 482.134998 227.656993 
L 502.066037 209.352696 
" clip-path="url(#p1592921c40)" style="fill: none; stroke-dasharray: 0.8,1.32; stroke-dashoffset: 0; stroke: #808080; stroke-opacity: 0.6; stroke-width: 0.8"/>
   </g>
   <g id="line2d_35">
    <path d="M 333.320665 305.982764 
L 333.257469 323.417657 
" clip-path="url(#p1592921c40)" style="fill: none; stroke-dasharray: 0.8,1.32; stroke-dashoffset: 0; stroke: #808080; stroke-opacity: 0.6; stroke-width: 0.8"/>
   </g>
   <g id="line2d_36">
    <path d="M 333.320665 305.982764 
L 358.341466 283.741709 
" clip-path="url(#p1592921c40)" style="fill: none; stroke-dasharray: 0.8,1.32; stroke-dashoffset: 0; stroke: #808080; stroke-opacity: 0.6; stroke-width: 0.8"/>
   </g>
   <g id="line2d_37">
    <path d="M 206.717042 154.64628 
L 210.423153 337.137039 
" clip-path="url(#p1592921c40)" style="fill: none; stroke-dasharray: 0.8,1.32; stroke-dashoffset: 0; stroke: #808080; stroke-opacity: 0.6; stroke-width: 0.8"/>
   </g>
   <g id="line2d_38">
    <path d="M 206.717042 154.64628 
L 278.418012 99.896133 
" clip-path="url(#p1592921c40)" style="fill: none; stroke-dasharray: 0.8,1.32; stroke-dashoffset: 0; stroke: #808080; stroke-opacity: 0.6; stroke-width: 0.8"/>
   </g>
   <g id="Path3DCollection_1">
    <defs>
     <path id="mbe9b28c75a" d="M 0 25.980762 
C 6.890179 25.980762 13.499081 23.243265 18.371173 18.371173 
C 23.243265 13.499081 25.980762 6.890179 25.980762 0 
C 25.980762 -6.890179 23.243265 -13.499081 18.371173 -18.371173 
C 13.499081 -23.243265 6.890179 -25.980762 0 -25.980762 
C -6.890179 -25.980762 -13.499081 -23.243265 -18.371173 -18.371173 
C -23.243265 -13.499081 -25.980762 -6.890179 -25.980762 0 
C -25.980762 6.890179 -23.243265 13.499081 -18.371173 18.371173 
C -13.499081 23.243265 -6.890179 25.980762 0 25.980762 
z
" style="stroke: #fdb462; stroke-opacity: 0.8; stroke-width: 0.6"/>
    </defs>
    <g clip-path="url(#p1592921c40)">
     <use xlink:href="#mbe9b28c75a" x="333.320665" y="305.982764" style="fill: #fdb462; fill-opacity: 0.8; stroke: #fdb462; stroke-opacity: 0.8; stroke-width: 0.6"/>
    </g>
   </g>
   <g id="Path3DCollection_2">
    <defs>
     <path id="m6a80ba1c5c" d="M 0 45 
C 11.93414 45 23.381094 40.258516 31.819805 31.819805 
C 40.258516 23.381094 45 11.93414 45 0 
C 45 -11.93414 40.258516 -23.381094 31.819805 -31.819805 
C 23.381094 -40.258516 11.93414 -45 0 -45 
C -11.93414 -45 -23.381094 -40.258516 -31.819805 -31.819805 
C -40.258516 -23.381094 -45 -11.93414 -45 0 
C -45 11.93414 -40.258516 23.381094 -31.819805 31.819805 
C -23.381094 40.258516 -11.93414 45 0 45 
z
" style="stroke: #ff7f00; stroke-opacity: 0.8; stroke-width: 0.6"/>
    </defs>
    <g clip-path="url(#p1592921c40)">
     <use xlink:href="#m6a80ba1c5c" x="234.278089" y="320.744067" style="fill: #ff7f00; fill-opacity: 0.8; stroke: #ff7f00; stroke-opacity: 0.8; stroke-width: 0.6"/>
    </g>
   </g>
   <g id="Path3DCollection_3">
    <defs>
     <path id="mdf4f02641d" d="M 0 19.843135 
C 5.262461 19.843135 10.310093 17.752337 14.031215 14.031215 
C 17.752337 10.310093 19.843135 5.262461 19.843135 0 
C 19.843135 -5.262461 17.752337 -10.310093 14.031215 -14.031215 
C 10.310093 -17.752337 5.262461 -19.843135 0 -19.843135 
C -5.262461 -19.843135 -10.310093 -17.752337 -14.031215 -14.031215 
C -17.752337 -10.310093 -19.843135 -5.262461 -19.843135 0 
C -19.843135 5.262461 -17.752337 10.310093 -14.031215 14.031215 
C -10.310093 17.752337 -5.262461 19.843135 0 19.843135 
z
" style="stroke: #b3de69; stroke-opacity: 0.8; stroke-width: 0.6"/>
    </defs>
    <g clip-path="url(#p1592921c40)">
     <use xlink:href="#mdf4f02641d" x="206.717042" y="154.64628" style="fill: #b3de69; fill-opacity: 0.8; stroke: #b3de69; stroke-opacity: 0.8; stroke-width: 0.6"/>
    </g>
   </g>
   <g id="legend_1">
    <g id="patch_6">
     <path d="M 9.2 258.183125 
L 151.498438 258.183125 
Q 153.498438 258.183125 153.498438 256.183125 
L 153.498438 125.08 
Q 153.498438 123.08 151.498438 123.08 
L 9.2 123.08 
Q 7.2 123.08 7.2 125.08 
L 7.2 256.183125 
Q 7.2 258.183125 9.2 258.183125 
z
" style="fill: #ffffff; opacity: 0.95; stroke: #c0c0c0; stroke-linejoin: miter"/>
    </g>
    <g id="line2d_39">
     <path d="M 11.2 131.178438 
L 21.2 131.178438 
L 31.2 131.178438 
" style="fill: none; stroke: #ffffff; stroke-width: 1.5; stroke-linecap: square"/>
     <defs>
      <path id="m5545847064" d="M 0 -5.5 
L -1.234827 -1.699593 
L -5.230811 -1.699593 
L -1.997992 0.649187 
L -3.232819 4.449593 
L -0 2.100813 
L 3.232819 4.449593 
L 1.997992 0.649187 
L 5.230811 -1.699593 
L 1.234827 -1.699593 
z
" style="stroke: #ffffff; stroke-width: 0.6; stroke-linejoin: bevel"/>
     </defs>
     <g>
      <use xlink:href="#m5545847064" x="21.2" y="131.178438" style="fill: #e41a1c; stroke: #ffffff; stroke-width: 0.6; stroke-linejoin: bevel"/>
     </g>
    </g>
    <g id="text_21">
     <!-- TaDiCodec -->
     <g transform="translate(39.2 134.678438) scale(0.1 -0.1)">
      <defs>
       <path id="DejaVuSans-54" d="M -19 4666 
L 3928 4666 
L 3928 4134 
L 2272 4134 
L 2272 0 
L 1638 0 
L 1638 4134 
L -19 4134 
L -19 4666 
z
" transform="scale(0.015625)"/>
       <path id="DejaVuSans-61" d="M 2194 1759 
Q 1497 1759 1228 1600 
Q 959 1441 959 1056 
Q 959 750 1161 570 
Q 1363 391 1709 391 
Q 2188 391 2477 730 
Q 2766 1069 2766 1631 
L 2766 1759 
L 2194 1759 
z
M 3341 1997 
L 3341 0 
L 2766 0 
L 2766 531 
Q 2569 213 2275 61 
Q 1981 -91 1556 -91 
Q 1019 -91 701 211 
Q 384 513 384 1019 
Q 384 1609 779 1909 
Q 1175 2209 1959 2209 
L 2766 2209 
L 2766 2266 
Q 2766 2663 2505 2880 
Q 2244 3097 1772 3097 
Q 1472 3097 1187 3025 
Q 903 2953 641 2809 
L 641 3341 
Q 956 3463 1253 3523 
Q 1550 3584 1831 3584 
Q 2591 3584 2966 3190 
Q 3341 2797 3341 1997 
z
" transform="scale(0.015625)"/>
       <path id="DejaVuSans-44" d="M 1259 4147 
L 1259 519 
L 2022 519 
Q 2988 519 3436 956 
Q 3884 1394 3884 2338 
Q 3884 3275 3436 3711 
Q 2988 4147 2022 4147 
L 1259 4147 
z
M 628 4666 
L 1925 4666 
Q 3281 4666 3915 4102 
Q 4550 3538 4550 2338 
Q 4550 1131 3912 565 
Q 3275 0 1925 0 
L 628 0 
L 628 4666 
z
" transform="scale(0.015625)"/>
       <path id="DejaVuSans-69" d="M 603 3500 
L 1178 3500 
L 1178 0 
L 603 0 
L 603 3500 
z
M 603 4863 
L 1178 4863 
L 1178 4134 
L 603 4134 
L 603 4863 
z
" transform="scale(0.015625)"/>
       <path id="DejaVuSans-43" d="M 4122 4306 
L 4122 3641 
Q 3803 3938 3442 4084 
Q 3081 4231 2675 4231 
Q 1875 4231 1450 3742 
Q 1025 3253 1025 2328 
Q 1025 1406 1450 917 
Q 1875 428 2675 428 
Q 3081 428 3442 575 
Q 3803 722 4122 1019 
L 4122 359 
Q 3791 134 3420 21 
Q 3050 -91 2638 -91 
Q 1578 -91 968 557 
Q 359 1206 359 2328 
Q 359 3453 968 4101 
Q 1578 4750 2638 4750 
Q 3056 4750 3426 4639 
Q 3797 4528 4122 4306 
z
" transform="scale(0.015625)"/>
       <path id="DejaVuSans-6f" d="M 1959 3097 
Q 1497 3097 1228 2736 
Q 959 2375 959 1747 
Q 959 1119 1226 758 
Q 1494 397 1959 397 
Q 2419 397 2687 759 
Q 2956 1122 2956 1747 
Q 2956 2369 2687 2733 
Q 2419 3097 1959 3097 
z
M 1959 3584 
Q 2709 3584 3137 3096 
Q 3566 2609 3566 1747 
Q 3566 888 3137 398 
Q 2709 -91 1959 -91 
Q 1206 -91 779 398 
Q 353 888 353 1747 
Q 353 2609 779 3096 
Q 1206 3584 1959 3584 
z
" transform="scale(0.015625)"/>
       <path id="DejaVuSans-64" d="M 2906 2969 
L 2906 4863 
L 3481 4863 
L 3481 0 
L 2906 0 
L 2906 525 
Q 2725 213 2448 61 
Q 2172 -91 1784 -91 
Q 1150 -91 751 415 
Q 353 922 353 1747 
Q 353 2572 751 3078 
Q 1150 3584 1784 3584 
Q 2172 3584 2448 3432 
Q 2725 3281 2906 2969 
z
M 947 1747 
Q 947 1113 1208 752 
Q 1469 391 1925 391 
Q 2381 391 2643 752 
Q 2906 1113 2906 1747 
Q 2906 2381 2643 2742 
Q 2381 3103 1925 3103 
Q 1469 3103 1208 2742 
Q 947 2381 947 1747 
z
" transform="scale(0.015625)"/>
       <path id="DejaVuSans-65" d="M 3597 1894 
L 3597 1613 
L 953 1613 
Q 991 1019 1311 708 
Q 1631 397 2203 397 
Q 2534 397 2845 478 
Q 3156 559 3463 722 
L 3463 178 
Q 3153 47 2828 -22 
Q 2503 -91 2169 -91 
Q 1331 -91 842 396 
Q 353 884 353 1716 
Q 353 2575 817 3079 
Q 1281 3584 2069 3584 
Q 2775 3584 3186 3129 
Q 3597 2675 3597 1894 
z
M 3022 2063 
Q 3016 2534 2758 2815 
Q 2500 3097 2075 3097 
Q 1594 3097 1305 2825 
Q 1016 2553 972 2059 
L 3022 2063 
z
" transform="scale(0.015625)"/>
       <path id="DejaVuSans-63" d="M 3122 3366 
L 3122 2828 
Q 2878 2963 2633 3030 
Q 2388 3097 2138 3097 
Q 1578 3097 1268 2742 
Q 959 2388 959 1747 
Q 959 1106 1268 751 
Q 1578 397 2138 397 
Q 2388 397 2633 464 
Q 2878 531 3122 666 
L 3122 134 
Q 2881 22 2623 -34 
Q 2366 -91 2075 -91 
Q 1284 -91 818 406 
Q 353 903 353 1747 
Q 353 2603 823 3093 
Q 1294 3584 2113 3584 
Q 2378 3584 2631 3529 
Q 2884 3475 3122 3366 
z
" transform="scale(0.015625)"/>
      </defs>
      <use xlink:href="#DejaVuSans-54"/>
      <use xlink:href="#DejaVuSans-61" x="44.583984"/>
      <use xlink:href="#DejaVuSans-44" x="105.863281"/>
      <use xlink:href="#DejaVuSans-69" x="182.865234"/>
      <use xlink:href="#DejaVuSans-43" x="210.648438"/>
      <use xlink:href="#DejaVuSans-6f" x="280.472656"/>
      <use xlink:href="#DejaVuSans-64" x="341.654297"/>
      <use xlink:href="#DejaVuSans-65" x="405.130859"/>
      <use xlink:href="#DejaVuSans-63" x="466.654297"/>
     </g>
    </g>
    <g id="line2d_40">
     <path d="M 11.2 145.856563 
L 21.2 145.856563 
L 31.2 145.856563 
" style="fill: none; stroke: #ffffff; stroke-width: 1.5; stroke-linecap: square"/>
     <defs>
      <path id="mf1766fc617" d="M 0 4.5 
C 1.193414 4.5 2.338109 4.025852 3.181981 3.181981 
C 4.025852 2.338109 4.5 1.193414 4.5 0 
C 4.5 -1.193414 4.025852 -2.338109 3.181981 -3.181981 
C 2.338109 -4.025852 1.193414 -4.5 0 -4.5 
C -1.193414 -4.5 -2.338109 -4.025852 -3.181981 -3.181981 
C -4.025852 -2.338109 -4.5 -1.193414 -4.5 0 
C -4.5 1.193414 -4.025852 2.338109 -3.181981 3.181981 
C -2.338109 4.025852 -1.193414 4.5 0 4.5 
z
" style="stroke: #ffffff; stroke-width: 0.6"/>
     </defs>
     <g>
      <use xlink:href="#mf1766fc617" x="21.2" y="145.856563" style="fill: #4daf4a; stroke: #ffffff; stroke-width: 0.6"/>
     </g>
    </g>
    <g id="text_22">
     <!-- CosyVoice 2 Tokenizer -->
     <g transform="translate(39.2 149.356563) scale(0.1 -0.1)">
      <defs>
       <path id="DejaVuSans-73" d="M 2834 3397 
L 2834 2853 
Q 2591 2978 2328 3040 
Q 2066 3103 1784 3103 
Q 1356 3103 1142 2972 
Q 928 2841 928 2578 
Q 928 2378 1081 2264 
Q 1234 2150 1697 2047 
L 1894 2003 
Q 2506 1872 2764 1633 
Q 3022 1394 3022 966 
Q 3022 478 2636 193 
Q 2250 -91 1575 -91 
Q 1294 -91 989 -36 
Q 684 19 347 128 
L 347 722 
Q 666 556 975 473 
Q 1284 391 1588 391 
Q 1994 391 2212 530 
Q 2431 669 2431 922 
Q 2431 1156 2273 1281 
Q 2116 1406 1581 1522 
L 1381 1569 
Q 847 1681 609 1914 
Q 372 2147 372 2553 
Q 372 3047 722 3315 
Q 1072 3584 1716 3584 
Q 2034 3584 2315 3537 
Q 2597 3491 2834 3397 
z
" transform="scale(0.015625)"/>
       <path id="DejaVuSans-79" d="M 2059 -325 
Q 1816 -950 1584 -1140 
Q 1353 -1331 966 -1331 
L 506 -1331 
L 506 -850 
L 844 -850 
Q 1081 -850 1212 -737 
Q 1344 -625 1503 -206 
L 1606 56 
L 191 3500 
L 800 3500 
L 1894 763 
L 2988 3500 
L 3597 3500 
L 2059 -325 
z
" transform="scale(0.015625)"/>
       <path id="DejaVuSans-56" d="M 1831 0 
L 50 4666 
L 709 4666 
L 2188 738 
L 3669 4666 
L 4325 4666 
L 2547 0 
L 1831 0 
z
" transform="scale(0.015625)"/>
       <path id="DejaVuSans-20" transform="scale(0.015625)"/>
       <path id="DejaVuSans-6b" d="M 581 4863 
L 1159 4863 
L 1159 1991 
L 2875 3500 
L 3609 3500 
L 1753 1863 
L 3688 0 
L 2938 0 
L 1159 1709 
L 1159 0 
L 581 0 
L 581 4863 
z
" transform="scale(0.015625)"/>
       <path id="DejaVuSans-6e" d="M 3513 2113 
L 3513 0 
L 2938 0 
L 2938 2094 
Q 2938 2591 2744 2837 
Q 2550 3084 2163 3084 
Q 1697 3084 1428 2787 
Q 1159 2491 1159 1978 
L 1159 0 
L 581 0 
L 581 3500 
L 1159 3500 
L 1159 2956 
Q 1366 3272 1645 3428 
Q 1925 3584 2291 3584 
Q 2894 3584 3203 3211 
Q 3513 2838 3513 2113 
z
" transform="scale(0.015625)"/>
       <path id="DejaVuSans-7a" d="M 353 3500 
L 3084 3500 
L 3084 2975 
L 922 459 
L 3084 459 
L 3084 0 
L 275 0 
L 275 525 
L 2438 3041 
L 353 3041 
L 353 3500 
z
" transform="scale(0.015625)"/>
       <path id="DejaVuSans-72" d="M 2631 2963 
Q 2534 3019 2420 3045 
Q 2306 3072 2169 3072 
Q 1681 3072 1420 2755 
Q 1159 2438 1159 1844 
L 1159 0 
L 581 0 
L 581 3500 
L 1159 3500 
L 1159 2956 
Q 1341 3275 1631 3429 
Q 1922 3584 2338 3584 
Q 2397 3584 2469 3576 
Q 2541 3569 2628 3553 
L 2631 2963 
z
" transform="scale(0.015625)"/>
      </defs>
      <use xlink:href="#DejaVuSans-43"/>
      <use xlink:href="#DejaVuSans-6f" x="69.824219"/>
      <use xlink:href="#DejaVuSans-73" x="131.005859"/>
      <use xlink:href="#DejaVuSans-79" x="183.105469"/>
      <use xlink:href="#DejaVuSans-56" x="242.285156"/>
      <use xlink:href="#DejaVuSans-6f" x="302.943359"/>
      <use xlink:href="#DejaVuSans-69" x="364.125"/>
      <use xlink:href="#DejaVuSans-63" x="391.908203"/>
      <use xlink:href="#DejaVuSans-65" x="446.888672"/>
      <use xlink:href="#DejaVuSans-20" x="508.412109"/>
      <use xlink:href="#DejaVuSans-32" x="540.199219"/>
      <use xlink:href="#DejaVuSans-20" x="603.822266"/>
      <use xlink:href="#DejaVuSans-54" x="635.609375"/>
      <use xlink:href="#DejaVuSans-6f" x="679.693359"/>
      <use xlink:href="#DejaVuSans-6b" x="740.875"/>
      <use xlink:href="#DejaVuSans-65" x="795.160156"/>
      <use xlink:href="#DejaVuSans-6e" x="856.683594"/>
      <use xlink:href="#DejaVuSans-69" x="920.0625"/>
      <use xlink:href="#DejaVuSans-7a" x="947.845703"/>
      <use xlink:href="#DejaVuSans-65" x="1000.335938"/>
      <use xlink:href="#DejaVuSans-72" x="1061.859375"/>
     </g>
    </g>
    <g id="line2d_41">
     <path d="M 11.2 160.534688 
L 21.2 160.534688 
L 31.2 160.534688 
" style="fill: none; stroke: #ffffff; stroke-width: 1.5; stroke-linecap: square"/>
     <defs>
      <path id="m97025e8e54" d="M 0 4.5 
C 1.193414 4.5 2.338109 4.025852 3.181981 3.181981 
C 4.025852 2.338109 4.5 1.193414 4.5 0 
C 4.5 -1.193414 4.025852 -2.338109 3.181981 -3.181981 
C 2.338109 -4.025852 1.193414 -4.5 0 -4.5 
C -1.193414 -4.5 -2.338109 -4.025852 -3.181981 -3.181981 
C -4.025852 -2.338109 -4.5 -1.193414 -4.5 0 
C -4.5 1.193414 -4.025852 2.338109 -3.181981 3.181981 
C -2.338109 4.025852 -1.193414 4.5 0 4.5 
z
" style="stroke: #ffffff; stroke-width: 0.6"/>
     </defs>
     <g>
      <use xlink:href="#m97025e8e54" x="21.2" y="160.534688" style="fill: #377eb8; stroke: #ffffff; stroke-width: 0.6"/>
     </g>
    </g>
    <g id="text_23">
     <!-- SemantiCodec -->
     <g transform="translate(39.2 164.034688) scale(0.1 -0.1)">
      <defs>
       <path id="DejaVuSans-53" d="M 3425 4513 
L 3425 3897 
Q 3066 4069 2747 4153 
Q 2428 4238 2131 4238 
Q 1616 4238 1336 4038 
Q 1056 3838 1056 3469 
Q 1056 3159 1242 3001 
Q 1428 2844 1947 2747 
L 2328 2669 
Q 3034 2534 3370 2195 
Q 3706 1856 3706 1288 
Q 3706 609 3251 259 
Q 2797 -91 1919 -91 
Q 1588 -91 1214 -16 
Q 841 59 441 206 
L 441 856 
Q 825 641 1194 531 
Q 1563 422 1919 422 
Q 2459 422 2753 634 
Q 3047 847 3047 1241 
Q 3047 1584 2836 1778 
Q 2625 1972 2144 2069 
L 1759 2144 
Q 1053 2284 737 2584 
Q 422 2884 422 3419 
Q 422 4038 858 4394 
Q 1294 4750 2059 4750 
Q 2388 4750 2728 4690 
Q 3069 4631 3425 4513 
z
" transform="scale(0.015625)"/>
       <path id="DejaVuSans-6d" d="M 3328 2828 
Q 3544 3216 3844 3400 
Q 4144 3584 4550 3584 
Q 5097 3584 5394 3201 
Q 5691 2819 5691 2113 
L 5691 0 
L 5113 0 
L 5113 2094 
Q 5113 2597 4934 2840 
Q 4756 3084 4391 3084 
Q 3944 3084 3684 2787 
Q 3425 2491 3425 1978 
L 3425 0 
L 2847 0 
L 2847 2094 
Q 2847 2600 2669 2842 
Q 2491 3084 2119 3084 
Q 1678 3084 1418 2786 
Q 1159 2488 1159 1978 
L 1159 0 
L 581 0 
L 581 3500 
L 1159 3500 
L 1159 2956 
Q 1356 3278 1631 3431 
Q 1906 3584 2284 3584 
Q 2666 3584 2933 3390 
Q 3200 3197 3328 2828 
z
" transform="scale(0.015625)"/>
       <path id="DejaVuSans-74" d="M 1172 4494 
L 1172 3500 
L 2356 3500 
L 2356 3053 
L 1172 3053 
L 1172 1153 
Q 1172 725 1289 603 
Q 1406 481 1766 481 
L 2356 481 
L 2356 0 
L 1766 0 
Q 1100 0 847 248 
Q 594 497 594 1153 
L 594 3053 
L 172 3053 
L 172 3500 
L 594 3500 
L 594 4494 
L 1172 4494 
z
" transform="scale(0.015625)"/>
      </defs>
      <use xlink:href="#DejaVuSans-53"/>
      <use xlink:href="#DejaVuSans-65" x="63.476562"/>
      <use xlink:href="#DejaVuSans-6d" x="125"/>
      <use xlink:href="#DejaVuSans-61" x="222.412109"/>
      <use xlink:href="#DejaVuSans-6e" x="283.691406"/>
      <use xlink:href="#DejaVuSans-74" x="347.070312"/>
      <use xlink:href="#DejaVuSans-69" x="386.279297"/>
      <use xlink:href="#DejaVuSans-43" x="414.0625"/>
      <use xlink:href="#DejaVuSans-6f" x="483.886719"/>
      <use xlink:href="#DejaVuSans-64" x="545.068359"/>
      <use xlink:href="#DejaVuSans-65" x="608.544922"/>
      <use xlink:href="#DejaVuSans-63" x="670.068359"/>
     </g>
    </g>
    <g id="line2d_42">
     <path d="M 11.2 175.212813 
L 21.2 175.212813 
L 31.2 175.212813 
" style="fill: none; stroke: #ffffff; stroke-width: 1.5; stroke-linecap: square"/>
     <defs>
      <path id="mf9fdf55c51" d="M 0 4.5 
C 1.193414 4.5 2.338109 4.025852 3.181981 3.181981 
C 4.025852 2.338109 4.5 1.193414 4.5 0 
C 4.5 -1.193414 4.025852 -2.338109 3.181981 -3.181981 
C 2.338109 -4.025852 1.193414 -4.5 0 -4.5 
C -1.193414 -4.5 -2.338109 -4.025852 -3.181981 -3.181981 
C -4.025852 -2.338109 -4.5 -1.193414 -4.5 0 
C -4.5 1.193414 -4.025852 2.338109 -3.181981 3.181981 
C -2.338109 4.025852 -1.193414 4.5 0 4.5 
z
" style="stroke: #ffffff; stroke-width: 0.6"/>
     </defs>
     <g>
      <use xlink:href="#mf9fdf55c51" x="21.2" y="175.212813" style="fill: #984ea3; stroke: #ffffff; stroke-width: 0.6"/>
     </g>
    </g>
    <g id="text_24">
     <!-- BigCodec -->
     <g transform="translate(39.2 178.712813) scale(0.1 -0.1)">
      <defs>
       <path id="DejaVuSans-42" d="M 1259 2228 
L 1259 519 
L 2272 519 
Q 2781 519 3026 730 
Q 3272 941 3272 1375 
Q 3272 1813 3026 2020 
Q 2781 2228 2272 2228 
L 1259 2228 
z
M 1259 4147 
L 1259 2741 
L 2194 2741 
Q 2656 2741 2882 2914 
Q 3109 3088 3109 3444 
Q 3109 3797 2882 3972 
Q 2656 4147 2194 4147 
L 1259 4147 
z
M 628 4666 
L 2241 4666 
Q 2963 4666 3353 4366 
Q 3744 4066 3744 3513 
Q 3744 3084 3544 2831 
Q 3344 2578 2956 2516 
Q 3422 2416 3680 2098 
Q 3938 1781 3938 1306 
Q 3938 681 3513 340 
Q 3088 0 2303 0 
L 628 0 
L 628 4666 
z
" transform="scale(0.015625)"/>
       <path id="DejaVuSans-67" d="M 2906 1791 
Q 2906 2416 2648 2759 
Q 2391 3103 1925 3103 
Q 1463 3103 1205 2759 
Q 947 2416 947 1791 
Q 947 1169 1205 825 
Q 1463 481 1925 481 
Q 2391 481 2648 825 
Q 2906 1169 2906 1791 
z
M 3481 434 
Q 3481 -459 3084 -895 
Q 2688 -1331 1869 -1331 
Q 1566 -1331 1297 -1286 
Q 1028 -1241 775 -1147 
L 775 -588 
Q 1028 -725 1275 -790 
Q 1522 -856 1778 -856 
Q 2344 -856 2625 -561 
Q 2906 -266 2906 331 
L 2906 616 
Q 2728 306 2450 153 
Q 2172 0 1784 0 
Q 1141 0 747 490 
Q 353 981 353 1791 
Q 353 2603 747 3093 
Q 1141 3584 1784 3584 
Q 2172 3584 2450 3431 
Q 2728 3278 2906 2969 
L 2906 3500 
L 3481 3500 
L 3481 434 
z
" transform="scale(0.015625)"/>
      </defs>
      <use xlink:href="#DejaVuSans-42"/>
      <use xlink:href="#DejaVuSans-69" x="68.603516"/>
      <use xlink:href="#DejaVuSans-67" x="96.386719"/>
      <use xlink:href="#DejaVuSans-43" x="159.863281"/>
      <use xlink:href="#DejaVuSans-6f" x="229.6875"/>
      <use xlink:href="#DejaVuSans-64" x="290.869141"/>
      <use xlink:href="#DejaVuSans-65" x="354.345703"/>
      <use xlink:href="#DejaVuSans-63" x="415.869141"/>
     </g>
    </g>
    <g id="line2d_43">
     <path d="M 11.2 189.890938 
L 21.2 189.890938 
L 31.2 189.890938 
" style="fill: none; stroke: #ffffff; stroke-width: 1.5; stroke-linecap: square"/>
     <defs>
      <path id="m8075fe5bd5" d="M 0 4.5 
C 1.193414 4.5 2.338109 4.025852 3.181981 3.181981 
C 4.025852 2.338109 4.5 1.193414 4.5 0 
C 4.5 -1.193414 4.025852 -2.338109 3.181981 -3.181981 
C 2.338109 -4.025852 1.193414 -4.5 0 -4.5 
C -1.193414 -4.5 -2.338109 -4.025852 -3.181981 -3.181981 
C -4.025852 -2.338109 -4.5 -1.193414 -4.5 0 
C -4.5 1.193414 -4.025852 2.338109 -3.181981 3.181981 
C -2.338109 4.025852 -1.193414 4.5 0 4.5 
z
" style="stroke: #ffffff; stroke-width: 0.6"/>
     </defs>
     <g>
      <use xlink:href="#m8075fe5bd5" x="21.2" y="189.890938" style="fill: #ff7f00; stroke: #ffffff; stroke-width: 0.6"/>
     </g>
    </g>
    <g id="text_25">
     <!-- WavTokenizer -->
     <g transform="translate(39.2 193.390938) scale(0.1 -0.1)">
      <defs>
       <path id="DejaVuSans-57" d="M 213 4666 
L 850 4666 
L 1831 722 
L 2809 4666 
L 3519 4666 
L 4500 722 
L 5478 4666 
L 6119 4666 
L 4947 0 
L 4153 0 
L 3169 4050 
L 2175 0 
L 1381 0 
L 213 4666 
z
" transform="scale(0.015625)"/>
       <path id="DejaVuSans-76" d="M 191 3500 
L 800 3500 
L 1894 563 
L 2988 3500 
L 3597 3500 
L 2284 0 
L 1503 0 
L 191 3500 
z
" transform="scale(0.015625)"/>
      </defs>
      <use xlink:href="#DejaVuSans-57"/>
      <use xlink:href="#DejaVuSans-61" x="92.501953"/>
      <use xlink:href="#DejaVuSans-76" x="153.78125"/>
      <use xlink:href="#DejaVuSans-54" x="212.960938"/>
      <use xlink:href="#DejaVuSans-6f" x="257.044922"/>
      <use xlink:href="#DejaVuSans-6b" x="318.226562"/>
      <use xlink:href="#DejaVuSans-65" x="372.511719"/>
      <use xlink:href="#DejaVuSans-6e" x="434.035156"/>
      <use xlink:href="#DejaVuSans-69" x="497.414062"/>
      <use xlink:href="#DejaVuSans-7a" x="525.197266"/>
      <use xlink:href="#DejaVuSans-65" x="577.6875"/>
      <use xlink:href="#DejaVuSans-72" x="639.210938"/>
     </g>
    </g>
    <g id="line2d_44">
     <path d="M 11.2 204.569063 
L 21.2 204.569063 
L 31.2 204.569063 
" style="fill: none; stroke: #ffffff; stroke-width: 1.5; stroke-linecap: square"/>
     <defs>
      <path id="m3a8a69ad40" d="M 0 4.5 
C 1.193414 4.5 2.338109 4.025852 3.181981 3.181981 
C 4.025852 2.338109 4.5 1.193414 4.5 0 
C 4.5 -1.193414 4.025852 -2.338109 3.181981 -3.181981 
C 2.338109 -4.025852 1.193414 -4.5 0 -4.5 
C -1.193414 -4.5 -2.338109 -4.025852 -3.181981 -3.181981 
C -4.025852 -2.338109 -4.5 -1.193414 -4.5 0 
C -4.5 1.193414 -4.025852 2.338109 -3.181981 3.181981 
C -2.338109 4.025852 -1.193414 4.5 0 4.5 
z
" style="stroke: #ffffff; stroke-width: 0.6"/>
     </defs>
     <g>
      <use xlink:href="#m3a8a69ad40" x="21.2" y="204.569063" style="fill: #a6cee3; stroke: #ffffff; stroke-width: 0.6"/>
     </g>
    </g>
    <g id="text_26">
     <!-- Mimi -->
     <g transform="translate(39.2 208.069063) scale(0.1 -0.1)">
      <defs>
       <path id="DejaVuSans-4d" d="M 628 4666 
L 1569 4666 
L 2759 1491 
L 3956 4666 
L 4897 4666 
L 4897 0 
L 4281 0 
L 4281 4097 
L 3078 897 
L 2444 897 
L 1241 4097 
L 1241 0 
L 628 0 
L 628 4666 
z
" transform="scale(0.015625)"/>
      </defs>
      <use xlink:href="#DejaVuSans-4d"/>
      <use xlink:href="#DejaVuSans-69" x="86.279297"/>
      <use xlink:href="#DejaVuSans-6d" x="114.0625"/>
      <use xlink:href="#DejaVuSans-69" x="211.474609"/>
     </g>
    </g>
    <g id="line2d_45">
     <path d="M 11.2 219.247188 
L 21.2 219.247188 
L 31.2 219.247188 
" style="fill: none; stroke: #ffffff; stroke-width: 1.5; stroke-linecap: square"/>
     <defs>
      <path id="m00d45f0535" d="M 0 4.5 
C 1.193414 4.5 2.338109 4.025852 3.181981 3.181981 
C 4.025852 2.338109 4.5 1.193414 4.5 0 
C 4.5 -1.193414 4.025852 -2.338109 3.181981 -3.181981 
C 2.338109 -4.025852 1.193414 -4.5 0 -4.5 
C -1.193414 -4.5 -2.338109 -4.025852 -3.181981 -3.181981 
C -4.025852 -2.338109 -4.5 -1.193414 -4.5 0 
C -4.5 1.193414 -4.025852 2.338109 -3.181981 3.181981 
C -2.338109 4.025852 -1.193414 4.5 0 4.5 
z
" style="stroke: #ffffff; stroke-width: 0.6"/>
     </defs>
     <g>
      <use xlink:href="#m00d45f0535" x="21.2" y="219.247188" style="fill: #8dd3c7; stroke: #ffffff; stroke-width: 0.6"/>
     </g>
    </g>
    <g id="text_27">
     <!-- BiCodec -->
     <g transform="translate(39.2 222.747188) scale(0.1 -0.1)">
      <use xlink:href="#DejaVuSans-42"/>
      <use xlink:href="#DejaVuSans-69" x="68.603516"/>
      <use xlink:href="#DejaVuSans-43" x="96.386719"/>
      <use xlink:href="#DejaVuSans-6f" x="166.210938"/>
      <use xlink:href="#DejaVuSans-64" x="227.392578"/>
      <use xlink:href="#DejaVuSans-65" x="290.869141"/>
      <use xlink:href="#DejaVuSans-63" x="352.392578"/>
     </g>
    </g>
    <g id="line2d_46">
     <path d="M 11.2 233.925313 
L 21.2 233.925313 
L 31.2 233.925313 
" style="fill: none; stroke: #ffffff; stroke-width: 1.5; stroke-linecap: square"/>
     <defs>
      <path id="m7d300a3231" d="M 0 4.5 
C 1.193414 4.5 2.338109 4.025852 3.181981 3.181981 
C 4.025852 2.338109 4.5 1.193414 4.5 0 
C 4.5 -1.193414 4.025852 -2.338109 3.181981 -3.181981 
C 2.338109 -4.025852 1.193414 -4.5 0 -4.5 
C -1.193414 -4.5 -2.338109 -4.025852 -3.181981 -3.181981 
C -4.025852 -2.338109 -4.5 -1.193414 -4.5 0 
C -4.5 1.193414 -4.025852 2.338109 -3.181981 3.181981 
C -2.338109 4.025852 -1.193414 4.5 0 4.5 
z
" style="stroke: #ffffff; stroke-width: 0.6"/>
     </defs>
     <g>
      <use xlink:href="#m7d300a3231" x="21.2" y="233.925313" style="fill: #fdb462; stroke: #ffffff; stroke-width: 0.6"/>
     </g>
    </g>
    <g id="text_28">
     <!-- CosyVoice Tokenizer -->
     <g transform="translate(39.2 237.425313) scale(0.1 -0.1)">
      <use xlink:href="#DejaVuSans-43"/>
      <use xlink:href="#DejaVuSans-6f" x="69.824219"/>
      <use xlink:href="#DejaVuSans-73" x="131.005859"/>
      <use xlink:href="#DejaVuSans-79" x="183.105469"/>
      <use xlink:href="#DejaVuSans-56" x="242.285156"/>
      <use xlink:href="#DejaVuSans-6f" x="302.943359"/>
      <use xlink:href="#DejaVuSans-69" x="364.125"/>
      <use xlink:href="#DejaVuSans-63" x="391.908203"/>
      <use xlink:href="#DejaVuSans-65" x="446.888672"/>
      <use xlink:href="#DejaVuSans-20" x="508.412109"/>
      <use xlink:href="#DejaVuSans-54" x="540.199219"/>
      <use xlink:href="#DejaVuSans-6f" x="584.283203"/>
      <use xlink:href="#DejaVuSans-6b" x="645.464844"/>
      <use xlink:href="#DejaVuSans-65" x="699.75"/>
      <use xlink:href="#DejaVuSans-6e" x="761.273438"/>
      <use xlink:href="#DejaVuSans-69" x="824.652344"/>
      <use xlink:href="#DejaVuSans-7a" x="852.435547"/>
      <use xlink:href="#DejaVuSans-65" x="904.925781"/>
      <use xlink:href="#DejaVuSans-72" x="966.449219"/>
     </g>
    </g>
    <g id="line2d_47">
     <path d="M 11.2 248.603438 
L 21.2 248.603438 
L 31.2 248.603438 
" style="fill: none; stroke: #ffffff; stroke-width: 1.5; stroke-linecap: square"/>
     <defs>
      <path id="m93046a57c6" d="M 0 4.5 
C 1.193414 4.5 2.338109 4.025852 3.181981 3.181981 
C 4.025852 2.338109 4.5 1.193414 4.5 0 
C 4.5 -1.193414 4.025852 -2.338109 3.181981 -3.181981 
C 2.338109 -4.025852 1.193414 -4.5 0 -4.5 
C -1.193414 -4.5 -2.338109 -4.025852 -3.181981 -3.181981 
C -4.025852 -2.338109 -4.5 -1.193414 -4.5 0 
C -4.5 1.193414 -4.025852 2.338109 -3.181981 3.181981 
C -2.338109 4.025852 -1.193414 4.5 0 4.5 
z
" style="stroke: #ffffff; stroke-width: 0.6"/>
     </defs>
     <g>
      <use xlink:href="#m93046a57c6" x="21.2" y="248.603438" style="fill: #b3de69; stroke: #ffffff; stroke-width: 0.6"/>
     </g>
    </g>
    <g id="text_29">
     <!-- Ints Tokenizer -->
     <g transform="translate(39.2 252.103438) scale(0.1 -0.1)">
      <defs>
       <path id="DejaVuSans-49" d="M 628 4666 
L 1259 4666 
L 1259 0 
L 628 0 
L 628 4666 
z
" transform="scale(0.015625)"/>
      </defs>
      <use xlink:href="#DejaVuSans-49"/>
      <use xlink:href="#DejaVuSans-6e" x="29.492188"/>
      <use xlink:href="#DejaVuSans-74" x="92.871094"/>
      <use xlink:href="#DejaVuSans-73" x="132.080078"/>
      <use xlink:href="#DejaVuSans-20" x="184.179688"/>
      <use xlink:href="#DejaVuSans-54" x="215.966797"/>
      <use xlink:href="#DejaVuSans-6f" x="260.050781"/>
      <use xlink:href="#DejaVuSans-6b" x="321.232422"/>
      <use xlink:href="#DejaVuSans-65" x="375.517578"/>
      <use xlink:href="#DejaVuSans-6e" x="437.041016"/>
      <use xlink:href="#DejaVuSans-69" x="500.419922"/>
      <use xlink:href="#DejaVuSans-7a" x="528.203125"/>
      <use xlink:href="#DejaVuSans-65" x="580.693359"/>
      <use xlink:href="#DejaVuSans-72" x="642.216797"/>
     </g>
    </g>
   </g>
   <g id="Path3DCollection_4">
    <defs>
     <path id="m02595125e5" d="M 0 38.242646 
C 10.142068 38.242646 19.870109 34.21316 27.041635 27.041635 
C 34.21316 19.870109 38.242646 10.142068 38.242646 0 
C 38.242646 -10.142068 34.21316 -19.870109 27.041635 -27.041635 
C 19.870109 -34.21316 10.142068 -38.242646 0 -38.242646 
C -10.142068 -38.242646 -19.870109 -34.21316 -27.041635 -27.041635 
C -34.21316 -19.870109 -38.242646 -10.142068 -38.242646 0 
C -38.242646 10.142068 -34.21316 19.870109 -27.041635 27.041635 
C -19.870109 34.21316 -10.142068 38.242646 0 38.242646 
z
" style="stroke: #8dd3c7; stroke-opacity: 0.8; stroke-width: 0.6"/>
    </defs>
    <g clip-path="url(#p1592921c40)">
     <use xlink:href="#m02595125e5" x="482.134998" y="227.656993" style="fill: #8dd3c7; fill-opacity: 0.8; stroke: #8dd3c7; stroke-opacity: 0.8; stroke-width: 0.6"/>
    </g>
   </g>
   <g id="Path3DCollection_5">
    <defs>
     <path id="m95c2cad708" d="M 0 27.041635 
C 7.171525 27.041635 14.050289 24.192357 19.121323 19.121323 
C 24.192357 14.050289 27.041635 7.171525 27.041635 0 
C 27.041635 -7.171525 24.192357 -14.050289 19.121323 -19.121323 
C 14.050289 -24.192357 7.171525 -27.041635 0 -27.041635 
C -7.171525 -27.041635 -14.050289 -24.192357 -19.121323 -19.121323 
C -24.192357 -14.050289 -27.041635 -7.171525 -27.041635 0 
C -27.041635 7.171525 -24.192357 14.050289 -19.121323 19.121323 
C -14.050289 24.192357 -7.171525 27.041635 0 27.041635 
z
" style="stroke: #4daf4a; stroke-opacity: 0.8; stroke-width: 0.6"/>
    </defs>
    <g clip-path="url(#p1592921c40)">
     <use xlink:href="#m95c2cad708" x="419.519585" y="155.992817" style="fill: #4daf4a; fill-opacity: 0.8; stroke: #4daf4a; stroke-opacity: 0.8; stroke-width: 0.6"/>
    </g>
   </g>
   <g id="Path3DCollection_6">
    <defs>
     <path id="mc0ee95d6fb" d="M 0 48.373546 
C 12.828814 48.373546 25.133921 43.276604 34.205263 34.205263 
C 43.276604 25.133921 48.373546 12.828814 48.373546 0 
C 48.373546 -12.828814 43.276604 -25.133921 34.205263 -34.205263 
C 25.133921 -43.276604 12.828814 -48.373546 0 -48.373546 
C -12.828814 -48.373546 -25.133921 -43.276604 -34.205263 -34.205263 
C -43.276604 -25.133921 -48.373546 -12.828814 -48.373546 0 
C -48.373546 12.828814 -43.276604 25.133921 -34.205263 34.205263 
C -25.133921 43.276604 -12.828814 48.373546 0 48.373546 
z
" style="stroke: #984ea3; stroke-opacity: 0.8; stroke-width: 0.6"/>
    </defs>
    <g clip-path="url(#p1592921c40)">
     <use xlink:href="#mc0ee95d6fb" x="457.635971" y="236.48474" style="fill: #984ea3; fill-opacity: 0.8; stroke: #984ea3; stroke-opacity: 0.8; stroke-width: 0.6"/>
    </g>
   </g>
   <g id="Path3DCollection_7">
    <defs>
     <path id="m5b280a60ef" d="M 0 -14.031215 
L -3.150204 -4.335884 
L -13.344479 -4.335884 
L -5.097137 1.65616 
L -8.247341 11.351492 
L -0 5.359447 
L 8.247341 11.351492 
L 5.097137 1.65616 
L 13.344479 -4.335884 
L 3.150204 -4.335884 
z
" style="stroke: #e41a1c; stroke-opacity: 0.8; stroke-width: 0.6"/>
    </defs>
    <g clip-path="url(#p1592921c40)">
     <use xlink:href="#m5b280a60ef" x="510.087412" y="157.774469" style="fill: #e41a1c; fill-opacity: 0.8; stroke: #e41a1c; stroke-opacity: 0.8; stroke-width: 0.6"/>
    </g>
   </g>
   <g id="Path3DCollection_8">
    <defs>
     <path id="meb1649b4f1" d="M 0 43.08422 
C 11.426069 43.08422 22.385693 38.544595 30.465144 30.465144 
C 38.544595 22.385693 43.08422 11.426069 43.08422 0 
C 43.08422 -11.426069 38.544595 -22.385693 30.465144 -30.465144 
C 22.385693 -38.544595 11.426069 -43.08422 0 -43.08422 
C -11.426069 -43.08422 -22.385693 -38.544595 -30.465144 -30.465144 
C -38.544595 -22.385693 -43.08422 -11.426069 -43.08422 0 
C -43.08422 11.426069 -38.544595 22.385693 -30.465144 30.465144 
C -22.385693 38.544595 -11.426069 43.08422 0 43.08422 
z
" style="stroke: #a6cee3; stroke-opacity: 0.8; stroke-width: 0.6"/>
    </defs>
    <g clip-path="url(#p1592921c40)">
     <use xlink:href="#meb1649b4f1" x="308.24656" y="361.216723" style="fill: #a6cee3; fill-opacity: 0.8; stroke: #a6cee3; stroke-opacity: 0.8; stroke-width: 0.6"/>
    </g>
   </g>
   <g id="text_30">
    <!-- TaDiCodec -->
    <g transform="translate(478.488227 133.644346) scale(0.11 -0.11)">
     <defs>
      <path id="DejaVuSans-Bold-61" d="M 2106 1575 
Q 1756 1575 1579 1456 
Q 1403 1338 1403 1106 
Q 1403 894 1545 773 
Q 1688 653 1941 653 
Q 2256 653 2472 879 
Q 2688 1106 2688 1447 
L 2688 1575 
L 2106 1575 
z
M 3816 1997 
L 3816 0 
L 2688 0 
L 2688 519 
Q 2463 200 2181 54 
Q 1900 -91 1497 -91 
Q 953 -91 614 226 
Q 275 544 275 1050 
Q 275 1666 698 1953 
Q 1122 2241 2028 2241 
L 2688 2241 
L 2688 2328 
Q 2688 2594 2478 2717 
Q 2269 2841 1825 2841 
Q 1466 2841 1156 2769 
Q 847 2697 581 2553 
L 581 3406 
Q 941 3494 1303 3539 
Q 1666 3584 2028 3584 
Q 2975 3584 3395 3211 
Q 3816 2838 3816 1997 
z
" transform="scale(0.015625)"/>
      <path id="DejaVuSans-Bold-44" d="M 1791 3756 
L 1791 909 
L 2222 909 
Q 2959 909 3348 1275 
Q 3738 1641 3738 2338 
Q 3738 3031 3350 3393 
Q 2963 3756 2222 3756 
L 1791 3756 
z
M 588 4666 
L 1856 4666 
Q 2919 4666 3439 4514 
Q 3959 4363 4331 4000 
Q 4659 3684 4818 3271 
Q 4978 2859 4978 2338 
Q 4978 1809 4818 1395 
Q 4659 981 4331 666 
Q 3956 303 3431 151 
Q 2906 0 1856 0 
L 588 0 
L 588 4666 
z
" transform="scale(0.015625)"/>
      <path id="DejaVuSans-Bold-43" d="M 4288 256 
Q 3956 84 3597 -3 
Q 3238 -91 2847 -91 
Q 1681 -91 1000 561 
Q 319 1213 319 2328 
Q 319 3447 1000 4098 
Q 1681 4750 2847 4750 
Q 3238 4750 3597 4662 
Q 3956 4575 4288 4403 
L 4288 3438 
Q 3953 3666 3628 3772 
Q 3303 3878 2944 3878 
Q 2300 3878 1931 3465 
Q 1563 3053 1563 2328 
Q 1563 1606 1931 1193 
Q 2300 781 2944 781 
Q 3303 781 3628 887 
Q 3953 994 4288 1222 
L 4288 256 
z
" transform="scale(0.015625)"/>
      <path id="DejaVuSans-Bold-64" d="M 2919 2988 
L 2919 4863 
L 4044 4863 
L 4044 0 
L 2919 0 
L 2919 506 
Q 2688 197 2409 53 
Q 2131 -91 1766 -91 
Q 1119 -91 703 423 
Q 288 938 288 1747 
Q 288 2556 703 3070 
Q 1119 3584 1766 3584 
Q 2128 3584 2408 3439 
Q 2688 3294 2919 2988 
z
M 2181 722 
Q 2541 722 2730 984 
Q 2919 1247 2919 1747 
Q 2919 2247 2730 2509 
Q 2541 2772 2181 2772 
Q 1825 2772 1636 2509 
Q 1447 2247 1447 1747 
Q 1447 1247 1636 984 
Q 1825 722 2181 722 
z
" transform="scale(0.015625)"/>
      <path id="DejaVuSans-Bold-63" d="M 3366 3391 
L 3366 2478 
Q 3138 2634 2908 2709 
Q 2678 2784 2431 2784 
Q 1963 2784 1702 2511 
Q 1441 2238 1441 1747 
Q 1441 1256 1702 982 
Q 1963 709 2431 709 
Q 2694 709 2930 787 
Q 3166 866 3366 1019 
L 3366 103 
Q 3103 6 2833 -42 
Q 2563 -91 2291 -91 
Q 1344 -91 809 395 
Q 275 881 275 1747 
Q 275 2613 809 3098 
Q 1344 3584 2291 3584 
Q 2566 3584 2833 3536 
Q 3100 3488 3366 3391 
z
" transform="scale(0.015625)"/>
     </defs>
     <use xlink:href="#DejaVuSans-Bold-54"/>
     <use xlink:href="#DejaVuSans-Bold-61" x="55.337891"/>
     <use xlink:href="#DejaVuSans-Bold-44" x="122.818359"/>
     <use xlink:href="#DejaVuSans-Bold-69" x="205.826172"/>
     <use xlink:href="#DejaVuSans-Bold-43" x="240.103516"/>
     <use xlink:href="#DejaVuSans-Bold-6f" x="313.492188"/>
     <use xlink:href="#DejaVuSans-Bold-64" x="382.193359"/>
     <use xlink:href="#DejaVuSans-Bold-65" x="453.775391"/>
     <use xlink:href="#DejaVuSans-Bold-63" x="521.597656"/>
    </g>
    <!-- (0.0875 Kbps) -->
    <g transform="translate(466.864321 145.96194) scale(0.11 -0.11)">
     <defs>
      <path id="DejaVuSans-Bold-30" d="M 2944 2338 
Q 2944 3213 2780 3570 
Q 2616 3928 2228 3928 
Q 1841 3928 1675 3570 
Q 1509 3213 1509 2338 
Q 1509 1453 1675 1090 
Q 1841 728 2228 728 
Q 2613 728 2778 1090 
Q 2944 1453 2944 2338 
z
M 4147 2328 
Q 4147 1169 3647 539 
Q 3147 -91 2228 -91 
Q 1306 -91 806 539 
Q 306 1169 306 2328 
Q 306 3491 806 4120 
Q 1306 4750 2228 4750 
Q 3147 4750 3647 4120 
Q 4147 3491 4147 2328 
z
" transform="scale(0.015625)"/>
      <path id="DejaVuSans-Bold-2e" d="M 653 1209 
L 1778 1209 
L 1778 0 
L 653 0 
L 653 1209 
z
" transform="scale(0.015625)"/>
      <path id="DejaVuSans-Bold-38" d="M 2228 2088 
Q 1891 2088 1709 1903 
Q 1528 1719 1528 1375 
Q 1528 1031 1709 848 
Q 1891 666 2228 666 
Q 2563 666 2741 848 
Q 2919 1031 2919 1375 
Q 2919 1722 2741 1905 
Q 2563 2088 2228 2088 
z
M 1350 2484 
Q 925 2613 709 2878 
Q 494 3144 494 3541 
Q 494 4131 934 4440 
Q 1375 4750 2228 4750 
Q 3075 4750 3515 4442 
Q 3956 4134 3956 3541 
Q 3956 3144 3739 2878 
Q 3522 2613 3097 2484 
Q 3572 2353 3814 2058 
Q 4056 1763 4056 1313 
Q 4056 619 3595 264 
Q 3134 -91 2228 -91 
Q 1319 -91 855 264 
Q 391 619 391 1313 
Q 391 1763 633 2058 
Q 875 2353 1350 2484 
z
M 1631 3419 
Q 1631 3141 1786 2991 
Q 1941 2841 2228 2841 
Q 2509 2841 2662 2991 
Q 2816 3141 2816 3419 
Q 2816 3697 2662 3845 
Q 2509 3994 2228 3994 
Q 1941 3994 1786 3844 
Q 1631 3694 1631 3419 
z
" transform="scale(0.015625)"/>
      <path id="DejaVuSans-Bold-37" d="M 428 4666 
L 3944 4666 
L 3944 3988 
L 2125 0 
L 953 0 
L 2675 3781 
L 428 3781 
L 428 4666 
z
" transform="scale(0.015625)"/>
      <path id="DejaVuSans-Bold-35" d="M 678 4666 
L 3669 4666 
L 3669 3781 
L 1638 3781 
L 1638 3059 
Q 1775 3097 1914 3117 
Q 2053 3138 2203 3138 
Q 3056 3138 3531 2711 
Q 4006 2284 4006 1522 
Q 4006 766 3489 337 
Q 2972 -91 2053 -91 
Q 1656 -91 1267 -14 
Q 878 63 494 219 
L 494 1166 
Q 875 947 1217 837 
Q 1559 728 1863 728 
Q 2300 728 2551 942 
Q 2803 1156 2803 1522 
Q 2803 1891 2551 2103 
Q 2300 2316 1863 2316 
Q 1603 2316 1309 2248 
Q 1016 2181 678 2041 
L 678 4666 
z
" transform="scale(0.015625)"/>
      <path id="DejaVuSans-Bold-4b" d="M 588 4666 
L 1791 4666 
L 1791 2963 
L 3525 4666 
L 4922 4666 
L 2675 2456 
L 5153 0 
L 3647 0 
L 1791 1838 
L 1791 0 
L 588 0 
L 588 4666 
z
" transform="scale(0.015625)"/>
      <path id="DejaVuSans-Bold-62" d="M 2400 722 
Q 2759 722 2948 984 
Q 3138 1247 3138 1747 
Q 3138 2247 2948 2509 
Q 2759 2772 2400 2772 
Q 2041 2772 1848 2508 
Q 1656 2244 1656 1747 
Q 1656 1250 1848 986 
Q 2041 722 2400 722 
z
M 1656 2988 
Q 1888 3294 2169 3439 
Q 2450 3584 2816 3584 
Q 3463 3584 3878 3070 
Q 4294 2556 4294 1747 
Q 4294 938 3878 423 
Q 3463 -91 2816 -91 
Q 2450 -91 2169 54 
Q 1888 200 1656 506 
L 1656 0 
L 538 0 
L 538 4863 
L 1656 4863 
L 1656 2988 
z
" transform="scale(0.015625)"/>
      <path id="DejaVuSans-Bold-70" d="M 1656 506 
L 1656 -1331 
L 538 -1331 
L 538 3500 
L 1656 3500 
L 1656 2988 
Q 1888 3294 2169 3439 
Q 2450 3584 2816 3584 
Q 3463 3584 3878 3070 
Q 4294 2556 4294 1747 
Q 4294 938 3878 423 
Q 3463 -91 2816 -91 
Q 2450 -91 2169 54 
Q 1888 200 1656 506 
z
M 2400 2772 
Q 2041 2772 1848 2508 
Q 1656 2244 1656 1747 
Q 1656 1250 1848 986 
Q 2041 722 2400 722 
Q 2759 722 2948 984 
Q 3138 1247 3138 1747 
Q 3138 2247 2948 2509 
Q 2759 2772 2400 2772 
z
" transform="scale(0.015625)"/>
     </defs>
     <use xlink:href="#DejaVuSans-Bold-28"/>
     <use xlink:href="#DejaVuSans-Bold-30" x="45.703125"/>
     <use xlink:href="#DejaVuSans-Bold-2e" x="115.283203"/>
     <use xlink:href="#DejaVuSans-Bold-30" x="153.271484"/>
     <use xlink:href="#DejaVuSans-Bold-38" x="222.851562"/>
     <use xlink:href="#DejaVuSans-Bold-37" x="292.431641"/>
     <use xlink:href="#DejaVuSans-Bold-35" x="362.011719"/>
     <use xlink:href="#DejaVuSans-Bold-20" x="431.591797"/>
     <use xlink:href="#DejaVuSans-Bold-4b" x="466.40625"/>
     <use xlink:href="#DejaVuSans-Bold-62" x="543.896484"/>
     <use xlink:href="#DejaVuSans-Bold-70" x="615.478516"/>
     <use xlink:href="#DejaVuSans-Bold-73" x="687.060547"/>
     <use xlink:href="#DejaVuSans-Bold-29" x="746.582031"/>
    </g>
   </g>
   <g id="text_31">
    <!-- CosyVoice 2 Tokenizer -->
    <g transform="translate(332.538646 126.638539) scale(0.1 -0.1)">
     <defs>
      <path id="DejaVuSans-Bold-79" d="M 78 3500 
L 1197 3500 
L 2138 1125 
L 2938 3500 
L 4056 3500 
L 2584 -331 
Q 2363 -916 2067 -1148 
Q 1772 -1381 1288 -1381 
L 641 -1381 
L 641 -647 
L 991 -647 
Q 1275 -647 1404 -556 
Q 1534 -466 1606 -231 
L 1638 -134 
L 78 3500 
z
" transform="scale(0.015625)"/>
      <path id="DejaVuSans-Bold-56" d="M 31 4666 
L 1241 4666 
L 2478 1222 
L 3713 4666 
L 4922 4666 
L 3194 0 
L 1759 0 
L 31 4666 
z
" transform="scale(0.015625)"/>
      <path id="DejaVuSans-Bold-32" d="M 1844 884 
L 3897 884 
L 3897 0 
L 506 0 
L 506 884 
L 2209 2388 
Q 2438 2594 2547 2791 
Q 2656 2988 2656 3200 
Q 2656 3528 2436 3728 
Q 2216 3928 1850 3928 
Q 1569 3928 1234 3808 
Q 900 3688 519 3450 
L 519 4475 
Q 925 4609 1322 4679 
Q 1719 4750 2100 4750 
Q 2938 4750 3402 4381 
Q 3866 4013 3866 3353 
Q 3866 2972 3669 2642 
Q 3472 2313 2841 1759 
L 1844 884 
z
" transform="scale(0.015625)"/>
      <path id="DejaVuSans-Bold-6b" d="M 538 4863 
L 1656 4863 
L 1656 2216 
L 2944 3500 
L 4244 3500 
L 2534 1894 
L 4378 0 
L 3022 0 
L 1656 1459 
L 1656 0 
L 538 0 
L 538 4863 
z
" transform="scale(0.015625)"/>
      <path id="DejaVuSans-Bold-6e" d="M 4056 2131 
L 4056 0 
L 2931 0 
L 2931 347 
L 2931 1631 
Q 2931 2084 2911 2256 
Q 2891 2428 2841 2509 
Q 2775 2619 2662 2680 
Q 2550 2741 2406 2741 
Q 2056 2741 1856 2470 
Q 1656 2200 1656 1722 
L 1656 0 
L 538 0 
L 538 3500 
L 1656 3500 
L 1656 2988 
Q 1909 3294 2193 3439 
Q 2478 3584 2822 3584 
Q 3428 3584 3742 3212 
Q 4056 2841 4056 2131 
z
" transform="scale(0.015625)"/>
      <path id="DejaVuSans-Bold-7a" d="M 366 3500 
L 3419 3500 
L 3419 2719 
L 1575 800 
L 3419 800 
L 3419 0 
L 288 0 
L 288 781 
L 2131 2700 
L 366 2700 
L 366 3500 
z
" transform="scale(0.015625)"/>
     </defs>
     <use xlink:href="#DejaVuSans-Bold-43"/>
     <use xlink:href="#DejaVuSans-Bold-6f" x="73.388672"/>
     <use xlink:href="#DejaVuSans-Bold-73" x="142.089844"/>
     <use xlink:href="#DejaVuSans-Bold-79" x="201.611328"/>
     <use xlink:href="#DejaVuSans-Bold-56" x="266.796875"/>
     <use xlink:href="#DejaVuSans-Bold-6f" x="338.689453"/>
     <use xlink:href="#DejaVuSans-Bold-69" x="407.390625"/>
     <use xlink:href="#DejaVuSans-Bold-63" x="441.667969"/>
     <use xlink:href="#DejaVuSans-Bold-65" x="500.945312"/>
     <use xlink:href="#DejaVuSans-Bold-20" x="568.767578"/>
     <use xlink:href="#DejaVuSans-Bold-32" x="603.582031"/>
     <use xlink:href="#DejaVuSans-Bold-20" x="673.162109"/>
     <use xlink:href="#DejaVuSans-Bold-54" x="707.976562"/>
     <use xlink:href="#DejaVuSans-Bold-6f" x="762.939453"/>
     <use xlink:href="#DejaVuSans-Bold-6b" x="831.640625"/>
     <use xlink:href="#DejaVuSans-Bold-65" x="895.519531"/>
     <use xlink:href="#DejaVuSans-Bold-6e" x="963.341797"/>
     <use xlink:href="#DejaVuSans-Bold-69" x="1034.533203"/>
     <use xlink:href="#DejaVuSans-Bold-7a" x="1068.810547"/>
     <use xlink:href="#DejaVuSans-Bold-65" x="1127.013672"/>
     <use xlink:href="#DejaVuSans-Bold-72" x="1194.835938"/>
    </g>
    <!-- (0.325 Kbps) -->
    <g transform="translate(358.613646 137.914477) scale(0.1 -0.1)">
     <defs>
      <path id="DejaVuSans-Bold-33" d="M 2981 2516 
Q 3453 2394 3698 2092 
Q 3944 1791 3944 1325 
Q 3944 631 3412 270 
Q 2881 -91 1863 -91 
Q 1503 -91 1142 -33 
Q 781 25 428 141 
L 428 1069 
Q 766 900 1098 814 
Q 1431 728 1753 728 
Q 2231 728 2486 893 
Q 2741 1059 2741 1369 
Q 2741 1688 2480 1852 
Q 2219 2016 1709 2016 
L 1228 2016 
L 1228 2791 
L 1734 2791 
Q 2188 2791 2409 2933 
Q 2631 3075 2631 3366 
Q 2631 3634 2415 3781 
Q 2200 3928 1806 3928 
Q 1516 3928 1219 3862 
Q 922 3797 628 3669 
L 628 4550 
Q 984 4650 1334 4700 
Q 1684 4750 2022 4750 
Q 2931 4750 3382 4451 
Q 3834 4153 3834 3553 
Q 3834 3144 3618 2883 
Q 3403 2622 2981 2516 
z
" transform="scale(0.015625)"/>
     </defs>
     <use xlink:href="#DejaVuSans-Bold-28"/>
     <use xlink:href="#DejaVuSans-Bold-30" x="45.703125"/>
     <use xlink:href="#DejaVuSans-Bold-2e" x="115.283203"/>
     <use xlink:href="#DejaVuSans-Bold-33" x="153.271484"/>
     <use xlink:href="#DejaVuSans-Bold-32" x="222.851562"/>
     <use xlink:href="#DejaVuSans-Bold-35" x="292.431641"/>
     <use xlink:href="#DejaVuSans-Bold-20" x="362.011719"/>
     <use xlink:href="#DejaVuSans-Bold-4b" x="396.826172"/>
     <use xlink:href="#DejaVuSans-Bold-62" x="474.316406"/>
     <use xlink:href="#DejaVuSans-Bold-70" x="545.898438"/>
     <use xlink:href="#DejaVuSans-Bold-73" x="617.480469"/>
     <use xlink:href="#DejaVuSans-Bold-29" x="677.001953"/>
    </g>
   </g>
   <g id="text_32">
    <!-- SemantiCodec -->
    <g transform="translate(191.107327 373.34418) scale(0.1 -0.1)">
     <defs>
      <path id="DejaVuSans-Bold-6d" d="M 3781 2919 
Q 3994 3244 4286 3414 
Q 4578 3584 4928 3584 
Q 5531 3584 5847 3212 
Q 6163 2841 6163 2131 
L 6163 0 
L 5038 0 
L 5038 1825 
Q 5041 1866 5042 1909 
Q 5044 1953 5044 2034 
Q 5044 2406 4934 2573 
Q 4825 2741 4581 2741 
Q 4263 2741 4089 2478 
Q 3916 2216 3909 1719 
L 3909 0 
L 2784 0 
L 2784 1825 
Q 2784 2406 2684 2573 
Q 2584 2741 2328 2741 
Q 2006 2741 1831 2477 
Q 1656 2213 1656 1722 
L 1656 0 
L 531 0 
L 531 3500 
L 1656 3500 
L 1656 2988 
Q 1863 3284 2130 3434 
Q 2397 3584 2719 3584 
Q 3081 3584 3359 3409 
Q 3638 3234 3781 2919 
z
" transform="scale(0.015625)"/>
     </defs>
     <use xlink:href="#DejaVuSans-Bold-53"/>
     <use xlink:href="#DejaVuSans-Bold-65" x="72.021484"/>
     <use xlink:href="#DejaVuSans-Bold-6d" x="139.84375"/>
     <use xlink:href="#DejaVuSans-Bold-61" x="244.042969"/>
     <use xlink:href="#DejaVuSans-Bold-6e" x="311.523438"/>
     <use xlink:href="#DejaVuSans-Bold-74" x="382.714844"/>
     <use xlink:href="#DejaVuSans-Bold-69" x="430.517578"/>
     <use xlink:href="#DejaVuSans-Bold-43" x="464.794922"/>
     <use xlink:href="#DejaVuSans-Bold-6f" x="538.183594"/>
     <use xlink:href="#DejaVuSans-Bold-64" x="606.884766"/>
     <use xlink:href="#DejaVuSans-Bold-65" x="678.466797"/>
     <use xlink:href="#DejaVuSans-Bold-63" x="746.289062"/>
    </g>
    <!-- (0.675 Kbps) -->
    <g transform="translate(195.252639 384.541993) scale(0.1 -0.1)">
     <defs>
      <path id="DejaVuSans-Bold-36" d="M 2316 2303 
Q 2000 2303 1842 2098 
Q 1684 1894 1684 1484 
Q 1684 1075 1842 870 
Q 2000 666 2316 666 
Q 2634 666 2792 870 
Q 2950 1075 2950 1484 
Q 2950 1894 2792 2098 
Q 2634 2303 2316 2303 
z
M 3803 4544 
L 3803 3681 
Q 3506 3822 3243 3889 
Q 2981 3956 2731 3956 
Q 2194 3956 1894 3657 
Q 1594 3359 1544 2772 
Q 1750 2925 1990 3001 
Q 2231 3078 2516 3078 
Q 3231 3078 3670 2659 
Q 4109 2241 4109 1563 
Q 4109 813 3618 361 
Q 3128 -91 2303 -91 
Q 1394 -91 895 523 
Q 397 1138 397 2266 
Q 397 3422 980 4083 
Q 1563 4744 2578 4744 
Q 2900 4744 3203 4694 
Q 3506 4644 3803 4544 
z
" transform="scale(0.015625)"/>
     </defs>
     <use xlink:href="#DejaVuSans-Bold-28"/>
     <use xlink:href="#DejaVuSans-Bold-30" x="45.703125"/>
     <use xlink:href="#DejaVuSans-Bold-2e" x="115.283203"/>
     <use xlink:href="#DejaVuSans-Bold-36" x="153.271484"/>
     <use xlink:href="#DejaVuSans-Bold-37" x="222.851562"/>
     <use xlink:href="#DejaVuSans-Bold-35" x="292.431641"/>
     <use xlink:href="#DejaVuSans-Bold-20" x="362.011719"/>
     <use xlink:href="#DejaVuSans-Bold-4b" x="396.826172"/>
     <use xlink:href="#DejaVuSans-Bold-62" x="474.316406"/>
     <use xlink:href="#DejaVuSans-Bold-70" x="545.898438"/>
     <use xlink:href="#DejaVuSans-Bold-73" x="617.480469"/>
     <use xlink:href="#DejaVuSans-Bold-29" x="677.001953"/>
    </g>
   </g>
   <g id="text_33">
    <!-- BigCodec -->
    <g transform="translate(406.598936 206.922022) scale(0.1 -0.1)">
     <use xlink:href="#DejaVuSans-Bold-42"/>
     <use xlink:href="#DejaVuSans-Bold-69" x="76.220703"/>
     <use xlink:href="#DejaVuSans-Bold-67" x="110.498047"/>
     <use xlink:href="#DejaVuSans-Bold-43" x="182.080078"/>
     <use xlink:href="#DejaVuSans-Bold-6f" x="255.46875"/>
     <use xlink:href="#DejaVuSans-Bold-64" x="324.169922"/>
     <use xlink:href="#DejaVuSans-Bold-65" x="395.751953"/>
     <use xlink:href="#DejaVuSans-Bold-63" x="463.574219"/>
    </g>
    <!-- (1.04 Kbps) -->
    <g transform="translate(400.087218 218.19796) scale(0.1 -0.1)">
     <defs>
      <path id="DejaVuSans-Bold-31" d="M 750 831 
L 1813 831 
L 1813 3847 
L 722 3622 
L 722 4441 
L 1806 4666 
L 2950 4666 
L 2950 831 
L 4013 831 
L 4013 0 
L 750 0 
L 750 831 
z
" transform="scale(0.015625)"/>
      <path id="DejaVuSans-Bold-34" d="M 2356 3675 
L 1038 1722 
L 2356 1722 
L 2356 3675 
z
M 2156 4666 
L 3494 4666 
L 3494 1722 
L 4159 1722 
L 4159 850 
L 3494 850 
L 3494 0 
L 2356 0 
L 2356 850 
L 288 850 
L 288 1881 
L 2156 4666 
z
" transform="scale(0.015625)"/>
     </defs>
     <use xlink:href="#DejaVuSans-Bold-28"/>
     <use xlink:href="#DejaVuSans-Bold-31" x="45.703125"/>
     <use xlink:href="#DejaVuSans-Bold-2e" x="115.283203"/>
     <use xlink:href="#DejaVuSans-Bold-30" x="153.271484"/>
     <use xlink:href="#DejaVuSans-Bold-34" x="222.851562"/>
     <use xlink:href="#DejaVuSans-Bold-20" x="292.431641"/>
     <use xlink:href="#DejaVuSans-Bold-4b" x="327.246094"/>
     <use xlink:href="#DejaVuSans-Bold-62" x="404.736328"/>
     <use xlink:href="#DejaVuSans-Bold-70" x="476.318359"/>
     <use xlink:href="#DejaVuSans-Bold-73" x="547.900391"/>
     <use xlink:href="#DejaVuSans-Bold-29" x="607.421875"/>
    </g>
   </g>
   <g id="text_34">
    <!-- WavTokenizer -->
    <g transform="translate(195.363169 298.602537) scale(0.1 -0.1)">
     <defs>
      <path id="DejaVuSans-Bold-76" d="M 97 3500 
L 1216 3500 
L 2088 1081 
L 2956 3500 
L 4078 3500 
L 2700 0 
L 1472 0 
L 97 3500 
z
" transform="scale(0.015625)"/>
     </defs>
     <use xlink:href="#DejaVuSans-Bold-57"/>
     <use xlink:href="#DejaVuSans-Bold-61" x="106.677734"/>
     <use xlink:href="#DejaVuSans-Bold-76" x="174.158203"/>
     <use xlink:href="#DejaVuSans-Bold-54" x="239.34375"/>
     <use xlink:href="#DejaVuSans-Bold-6f" x="294.306641"/>
     <use xlink:href="#DejaVuSans-Bold-6b" x="363.007812"/>
     <use xlink:href="#DejaVuSans-Bold-65" x="426.886719"/>
     <use xlink:href="#DejaVuSans-Bold-6e" x="494.708984"/>
     <use xlink:href="#DejaVuSans-Bold-69" x="565.900391"/>
     <use xlink:href="#DejaVuSans-Bold-7a" x="600.177734"/>
     <use xlink:href="#DejaVuSans-Bold-65" x="658.380859"/>
     <use xlink:href="#DejaVuSans-Bold-72" x="726.203125"/>
    </g>
    <!-- (0.9 Kbps) -->
    <g transform="translate(204.963951 309.80035) scale(0.1 -0.1)">
     <defs>
      <path id="DejaVuSans-Bold-39" d="M 641 103 
L 641 966 
Q 928 831 1190 764 
Q 1453 697 1709 697 
Q 2247 697 2547 995 
Q 2847 1294 2900 1881 
Q 2688 1725 2447 1647 
Q 2206 1569 1925 1569 
Q 1209 1569 770 1986 
Q 331 2403 331 3084 
Q 331 3838 820 4291 
Q 1309 4744 2131 4744 
Q 3044 4744 3544 4128 
Q 4044 3513 4044 2388 
Q 4044 1231 3459 570 
Q 2875 -91 1856 -91 
Q 1528 -91 1228 -42 
Q 928 6 641 103 
z
M 2125 2350 
Q 2441 2350 2600 2554 
Q 2759 2759 2759 3169 
Q 2759 3575 2600 3781 
Q 2441 3988 2125 3988 
Q 1809 3988 1650 3781 
Q 1491 3575 1491 3169 
Q 1491 2759 1650 2554 
Q 1809 2350 2125 2350 
z
" transform="scale(0.015625)"/>
     </defs>
     <use xlink:href="#DejaVuSans-Bold-28"/>
     <use xlink:href="#DejaVuSans-Bold-30" x="45.703125"/>
     <use xlink:href="#DejaVuSans-Bold-2e" x="115.283203"/>
     <use xlink:href="#DejaVuSans-Bold-39" x="153.271484"/>
     <use xlink:href="#DejaVuSans-Bold-20" x="222.851562"/>
     <use xlink:href="#DejaVuSans-Bold-4b" x="257.666016"/>
     <use xlink:href="#DejaVuSans-Bold-62" x="335.15625"/>
     <use xlink:href="#DejaVuSans-Bold-70" x="406.738281"/>
     <use xlink:href="#DejaVuSans-Bold-73" x="478.320312"/>
     <use xlink:href="#DejaVuSans-Bold-29" x="537.841797"/>
    </g>
   </g>
   <g id="text_35">
    <!-- Mimi -->
    <g transform="translate(294.621003 338.718621) scale(0.1 -0.1)">
     <use xlink:href="#DejaVuSans-Bold-4d"/>
     <use xlink:href="#DejaVuSans-Bold-69" x="99.511719"/>
     <use xlink:href="#DejaVuSans-Bold-6d" x="133.789062"/>
     <use xlink:href="#DejaVuSans-Bold-69" x="237.988281"/>
    </g>
    <!-- (0.825 Kbps) -->
    <g transform="translate(272.101472 349.916433) scale(0.1 -0.1)">
     <use xlink:href="#DejaVuSans-Bold-28"/>
     <use xlink:href="#DejaVuSans-Bold-30" x="45.703125"/>
     <use xlink:href="#DejaVuSans-Bold-2e" x="115.283203"/>
     <use xlink:href="#DejaVuSans-Bold-38" x="153.271484"/>
     <use xlink:href="#DejaVuSans-Bold-32" x="222.851562"/>
     <use xlink:href="#DejaVuSans-Bold-35" x="292.431641"/>
     <use xlink:href="#DejaVuSans-Bold-20" x="362.011719"/>
     <use xlink:href="#DejaVuSans-Bold-4b" x="396.826172"/>
     <use xlink:href="#DejaVuSans-Bold-62" x="474.316406"/>
     <use xlink:href="#DejaVuSans-Bold-70" x="545.898438"/>
     <use xlink:href="#DejaVuSans-Bold-73" x="617.480469"/>
     <use xlink:href="#DejaVuSans-Bold-29" x="677.001953"/>
    </g>
   </g>
   <g id="text_36">
    <!-- BiCodec -->
    <g transform="translate(485.192221 211.962829) scale(0.1 -0.1)">
     <use xlink:href="#DejaVuSans-Bold-42"/>
     <use xlink:href="#DejaVuSans-Bold-69" x="76.220703"/>
     <use xlink:href="#DejaVuSans-Bold-43" x="110.498047"/>
     <use xlink:href="#DejaVuSans-Bold-6f" x="183.886719"/>
     <use xlink:href="#DejaVuSans-Bold-64" x="252.587891"/>
     <use xlink:href="#DejaVuSans-Bold-65" x="324.169922"/>
     <use xlink:href="#DejaVuSans-Bold-63" x="391.992188"/>
    </g>
    <!-- (0.65 Kbps) -->
    <g transform="translate(475.101596 223.160641) scale(0.1 -0.1)">
     <use xlink:href="#DejaVuSans-Bold-28"/>
     <use xlink:href="#DejaVuSans-Bold-30" x="45.703125"/>
     <use xlink:href="#DejaVuSans-Bold-2e" x="115.283203"/>
     <use xlink:href="#DejaVuSans-Bold-36" x="153.271484"/>
     <use xlink:href="#DejaVuSans-Bold-35" x="222.851562"/>
     <use xlink:href="#DejaVuSans-Bold-20" x="292.431641"/>
     <use xlink:href="#DejaVuSans-Bold-4b" x="327.246094"/>
     <use xlink:href="#DejaVuSans-Bold-62" x="404.736328"/>
     <use xlink:href="#DejaVuSans-Bold-70" x="476.318359"/>
     <use xlink:href="#DejaVuSans-Bold-73" x="547.900391"/>
     <use xlink:href="#DejaVuSans-Bold-29" x="607.421875"/>
    </g>
   </g>
   <g id="text_37">
    <!-- CosyVoice Tokenizer -->
    <g transform="translate(276.363362 283.865298) scale(0.1 -0.1)">
     <use xlink:href="#DejaVuSans-Bold-43"/>
     <use xlink:href="#DejaVuSans-Bold-6f" x="73.388672"/>
     <use xlink:href="#DejaVuSans-Bold-73" x="142.089844"/>
     <use xlink:href="#DejaVuSans-Bold-79" x="201.611328"/>
     <use xlink:href="#DejaVuSans-Bold-56" x="266.796875"/>
     <use xlink:href="#DejaVuSans-Bold-6f" x="338.689453"/>
     <use xlink:href="#DejaVuSans-Bold-69" x="407.390625"/>
     <use xlink:href="#DejaVuSans-Bold-63" x="441.667969"/>
     <use xlink:href="#DejaVuSans-Bold-65" x="500.945312"/>
     <use xlink:href="#DejaVuSans-Bold-20" x="568.767578"/>
     <use xlink:href="#DejaVuSans-Bold-54" x="603.582031"/>
     <use xlink:href="#DejaVuSans-Bold-6f" x="658.544922"/>
     <use xlink:href="#DejaVuSans-Bold-6b" x="727.246094"/>
     <use xlink:href="#DejaVuSans-Bold-65" x="791.125"/>
     <use xlink:href="#DejaVuSans-Bold-6e" x="858.947266"/>
     <use xlink:href="#DejaVuSans-Bold-69" x="930.138672"/>
     <use xlink:href="#DejaVuSans-Bold-7a" x="964.416016"/>
     <use xlink:href="#DejaVuSans-Bold-65" x="1022.619141"/>
     <use xlink:href="#DejaVuSans-Bold-72" x="1090.441406"/>
    </g>
    <!-- (0.3 Kbps) -->
    <g transform="translate(304.176643 295.141235) scale(0.1 -0.1)">
     <use xlink:href="#DejaVuSans-Bold-28"/>
     <use xlink:href="#DejaVuSans-Bold-30" x="45.703125"/>
     <use xlink:href="#DejaVuSans-Bold-2e" x="115.283203"/>
     <use xlink:href="#DejaVuSans-Bold-33" x="153.271484"/>
     <use xlink:href="#DejaVuSans-Bold-20" x="222.851562"/>
     <use xlink:href="#DejaVuSans-Bold-4b" x="257.666016"/>
     <use xlink:href="#DejaVuSans-Bold-62" x="335.15625"/>
     <use xlink:href="#DejaVuSans-Bold-70" x="406.738281"/>
     <use xlink:href="#DejaVuSans-Bold-73" x="478.320312"/>
     <use xlink:href="#DejaVuSans-Bold-29" x="537.841797"/>
    </g>
   </g>
   <g id="text_38">
    <!-- Ints Tokenizer -->
    <g transform="translate(167.191382 131.988265) scale(0.1 -0.1)">
     <use xlink:href="#DejaVuSans-Bold-49"/>
     <use xlink:href="#DejaVuSans-Bold-6e" x="37.207031"/>
     <use xlink:href="#DejaVuSans-Bold-74" x="108.398438"/>
     <use xlink:href="#DejaVuSans-Bold-73" x="156.201172"/>
     <use xlink:href="#DejaVuSans-Bold-20" x="215.722656"/>
     <use xlink:href="#DejaVuSans-Bold-54" x="250.537109"/>
     <use xlink:href="#DejaVuSans-Bold-6f" x="305.5"/>
     <use xlink:href="#DejaVuSans-Bold-6b" x="374.201172"/>
     <use xlink:href="#DejaVuSans-Bold-65" x="438.080078"/>
     <use xlink:href="#DejaVuSans-Bold-6e" x="505.902344"/>
     <use xlink:href="#DejaVuSans-Bold-69" x="577.09375"/>
     <use xlink:href="#DejaVuSans-Bold-7a" x="611.371094"/>
     <use xlink:href="#DejaVuSans-Bold-65" x="669.574219"/>
     <use xlink:href="#DejaVuSans-Bold-72" x="737.396484"/>
    </g>
    <!-- (0.175 Kbps) -->
    <g transform="translate(170.392944 143.186078) scale(0.1 -0.1)">
     <use xlink:href="#DejaVuSans-Bold-28"/>
     <use xlink:href="#DejaVuSans-Bold-30" x="45.703125"/>
     <use xlink:href="#DejaVuSans-Bold-2e" x="115.283203"/>
     <use xlink:href="#DejaVuSans-Bold-31" x="153.271484"/>
     <use xlink:href="#DejaVuSans-Bold-37" x="222.851562"/>
     <use xlink:href="#DejaVuSans-Bold-35" x="292.431641"/>
     <use xlink:href="#DejaVuSans-Bold-20" x="362.011719"/>
     <use xlink:href="#DejaVuSans-Bold-4b" x="396.826172"/>
     <use xlink:href="#DejaVuSans-Bold-62" x="474.316406"/>
     <use xlink:href="#DejaVuSans-Bold-70" x="545.898438"/>
     <use xlink:href="#DejaVuSans-Bold-73" x="617.480469"/>
     <use xlink:href="#DejaVuSans-Bold-29" x="677.001953"/>
    </g>
   </g>
   <g id="Path3DCollection_9">
    <defs>
     <path id="m6514af9252" d="M 0 38.971143 
C 10.335268 38.971143 20.248622 34.864898 27.55676 27.55676 
C 34.864898 20.248622 38.971143 10.335268 38.971143 0 
C 38.971143 -10.335268 34.864898 -20.248622 27.55676 -27.55676 
C 20.248622 -34.864898 10.335268 -38.971143 0 -38.971143 
C -10.335268 -38.971143 -20.248622 -34.864898 -27.55676 -27.55676 
C -34.864898 -20.248622 -38.971143 -10.335268 -38.971143 0 
C -38.971143 10.335268 -34.864898 20.248622 -27.55676 27.55676 
C -20.248622 34.864898 -10.335268 38.971143 0 38.971143 
z
" style="stroke: #377eb8; stroke-opacity: 0.8; stroke-width: 0.6"/>
    </defs>
    <g clip-path="url(#p1592921c40)">
     <use xlink:href="#m6514af9252" x="231.840937" y="414.380764" style="fill: #377eb8; fill-opacity: 0.8; stroke: #377eb8; stroke-opacity: 0.8; stroke-width: 0.6"/>
    </g>
   </g>
  </g>
 </g>
 <defs>
  <clipPath id="p1592921c40">
   <rect x="29.92" y="7.2" width="554.4" height="554.4"/>
  </clipPath>
 </defs>
</svg>
